<svg xmlns="http://www.w3.org/2000/svg" width="30.498" height="30.279" viewBox="0 0 30.498 30.279">
  <path id="Icon_metro-cancel" data-name="Icon metro-cancel" d="M17.82,1.928A15.14,15.14,0,1,0,33.069,17.067,15.195,15.195,0,0,0,17.82,1.928Zm0,27.44a12.3,12.3,0,1,1,12.39-12.3A12.346,12.346,0,0,1,17.82,29.368ZM22.585,9.5,17.82,14.229,13.055,9.5,10.2,12.336l4.765,4.731L10.2,21.8l2.859,2.839,4.765-4.731,4.765,4.731L25.445,21.8l-4.765-4.731,4.765-4.731Z" transform="translate(-2.571 -1.928)" fill="#2f4d9c"/>
</svg>
