<svg xmlns="http://www.w3.org/2000/svg" xmlns:xlink="http://www.w3.org/1999/xlink" width="46" height="47" viewBox="0 0 46 47">
  <defs>
    <clipPath id="clip-path">
      <rect id="Rectangle_801" data-name="Rectangle 801" width="46" height="47" transform="translate(5755 -2583)" fill="none" stroke="#7a7a7a" stroke-width="1"/>
    </clipPath>
  </defs>
  <g id="Mask_Group_30" data-name="Mask Group 30" transform="translate(-5755 2583)" clip-path="url(#clip-path)">
    <path id="Path_78" data-name="Path 78" d="M718.1,223.977a20.961,20.961,0,0,1-11.8-5.47,21.73,21.73,0,0,1-6.279-10.654c-.922-3.45-.461-6.524,2.317-9.037,1.578-1.428,3.14-1.447,4.689.049.868.839,1.74,1.675,2.579,2.542a3.148,3.148,0,0,1,.164,4.413c-.64.755-1.453,1.369-2.041,2.156a2.009,2.009,0,0,0-.4,1.6,12.6,12.6,0,0,0,6.439,6.62,1.551,1.551,0,0,0,2-.418c.533-.571,1.1-1.108,1.644-1.67a3.106,3.106,0,0,1,4.7-.162c.957.9,1.9,1.818,2.783,2.787a2.8,2.8,0,0,1,.242,3.954A7.666,7.666,0,0,1,718.1,223.977Zm.615-1.335a6.563,6.563,0,0,0,4.9-2.254c1-.988,1.061-1.852.115-2.87-.821-.883-1.686-1.729-2.578-2.541a1.63,1.63,0,0,0-2.615,0c-.763.691-1.459,1.455-2.225,2.143a2.378,2.378,0,0,1-2.817.477,14.51,14.51,0,0,1-7.392-7.178,2.707,2.707,0,0,1,.546-3.41c.563-.591,1.156-1.152,1.734-1.728,1.105-1.1,1.14-1.912.089-3.022q-1.134-1.2-2.319-2.348a1.988,1.988,0,0,0-2.923,0c-2.288,1.965-2.6,4.475-1.947,7.18a19.885,19.885,0,0,0,8.174,12.145A20.277,20.277,0,0,0,718.71,222.642Z" transform="translate(5065.418 -2770.691)" fill="#0093d6"/>
  </g>
</svg>
