<svg xmlns="http://www.w3.org/2000/svg" xmlns:xlink="http://www.w3.org/1999/xlink" width="46" height="47" viewBox="0 0 46 47">
  <defs>
    <clipPath id="clip-path">
      <rect id="Rectangle_808" data-name="Rectangle 808" width="46" height="47" transform="translate(20 672)" fill="none" stroke="#7a7a7a" stroke-width="1"/>
    </clipPath>
    <clipPath id="clip-path-2">
      <path id="Path_100" data-name="Path 100" d="M24.084,7.506a2.8,2.8,0,0,1-2.309-1.358A2.639,2.639,0,0,0,19.6,5.061H11.725a6.81,6.81,0,0,0-6.79,6.79V25.3a6.81,6.81,0,0,0,6.79,6.79H28.7a6.81,6.81,0,0,0,6.79-6.79V11.852a4.29,4.29,0,0,0-4.346-4.346Z" transform="translate(-4.935 -5.061)" fill="#fff" stroke="#0093d6" stroke-miterlimit="10" stroke-width="2"/>
    </clipPath>
  </defs>
  <g id="Mask_Group_37" data-name="Mask Group 37" transform="translate(-20 -672)" clip-path="url(#clip-path)">
    <g id="bang-gia-xem-ho-so-khach-hang-icon" transform="translate(27 681.622)">
      <g id="san-pham-tai-chinh-ua-thich_icon" data-name="san-pham-tai-chinh-ua-thich icon" transform="translate(0 0)">
        <g id="Group_1029" data-name="Group 1029">
          <g id="icon">
            <g id="Group_1028" data-name="Group 1028">
              <g id="Mask_Group_15" data-name="Mask Group 15" transform="translate(0.136)" clip-path="url(#clip-path-2)">
                <g id="icon-2" data-name="icon" transform="translate(0.59 0.744)">
                  <g id="Group_1036" data-name="Group 1036" transform="translate(0)">
                    <path id="Path_113" data-name="Path 113" d="M24.941,7.613a2.6,2.6,0,0,1-2.214-1.329,2.523,2.523,0,0,0-1.919-1.033H13.279A6.4,6.4,0,0,0,6.932,11.6v12.7a6.553,6.553,0,0,0,6.5,6.5H29.517a6.553,6.553,0,0,0,6.5-6.5V11.747a4.126,4.126,0,0,0-4.133-4.133H24.941Z" transform="translate(-6.784 -5.251)" fill="#fff" stroke="#0093d6" stroke-miterlimit="10" stroke-width="2"/>
                    <line id="Line_19" data-name="Line 19" x1="28.933" transform="translate(0 8.414)" fill="#fff" stroke="#0093d6" stroke-miterlimit="10" stroke-width="2"/>
                  </g>
                </g>
              </g>
              <path id="Rectangle_809" data-name="Rectangle 809" d="M0,0H29a0,0,0,0,1,0,0V12a5,5,0,0,1-5,5H5a5,5,0,0,1-5-5V0A0,0,0,0,1,0,0Z" transform="translate(1 9.378)" fill="#0093d6"/>
            </g>
          </g>
        </g>
      </g>
    </g>
  </g>
</svg>
