<svg xmlns="http://www.w3.org/2000/svg" xmlns:xlink="http://www.w3.org/1999/xlink" width="46" height="47" viewBox="0 0 46 47">
  <defs>
    <clipPath id="clip-path">
      <rect id="Rectangle_794" data-name="Rectangle 794" width="46" height="47" transform="translate(5756 -3055)" fill="none" stroke="#7a7a7a" stroke-width="1"/>
    </clipPath>
  </defs>
  <g id="Mask_Group_23" data-name="Mask Group 23" transform="translate(-5756 3055)" clip-path="url(#clip-path)">
    <path id="Path_216" data-name="Path 216" d="M108.463,67.153a25.778,25.778,0,0,0-30.927,0,1.341,1.341,0,0,0-.267,1.878l7.078,9.416a1.341,1.341,0,0,0,1.876.267,11.3,11.3,0,0,1,13.554,0,1.34,1.34,0,0,0,1.876-.267l7.078-9.416a1.341,1.341,0,0,0-.267-1.878Zm-8.187,8.663a13.821,13.821,0,0,0-5.936-1.977V69.752a1.341,1.341,0,1,0-2.682,0v4.087a13.821,13.821,0,0,0-5.936,1.977l-5.481-7.293a23.1,23.1,0,0,1,25.516,0Zm0,0" transform="translate(5686 -3095.748)" fill="#0093d6"/>
    <path id="Path_217" data-name="Path 217" d="M224.333,57.587c0-.257.236-.471.975-.471a4.626,4.626,0,0,1,2.088.557l.76-1.831a5.592,5.592,0,0,0-2.174-.621V54.074h-1.51v1.167c-1.756.246-2.635,1.264-2.635,2.474,0,2.8,4.145,2.035,4.145,2.977,0,.257-.257.407-.975.407a5.143,5.143,0,0,1-2.474-.685l-.814,1.842a6.3,6.3,0,0,0,2.752.75v1.135h1.51V62.953c1.66-.289,2.5-1.3,2.5-2.453C228.478,57.737,224.333,58.487,224.333,57.587Z" transform="translate(5553.95 -3099.889)" fill="#0093d6"/>
  </g>
</svg>
