<svg xmlns="http://www.w3.org/2000/svg" width="52" height="53" viewBox="0 0 52 53">
  <g id="side_menu-_avatar" data-name="side menu- avatar" transform="translate(0.185 0.232)">
    <ellipse id="Ellipse_18" data-name="Ellipse 18" cx="26" cy="26.5" rx="26" ry="26.5" transform="translate(-0.185 -0.232)" fill="#0093d6"/>
    <ellipse id="Ellipse_19" data-name="Ellipse 19" cx="23" cy="23.5" rx="23" ry="23.5" transform="translate(2.815 2.768)" fill="#fff"/>
    <g id="Group_109" data-name="Group 109" transform="translate(5.509 10.069)">
      <rect id="bounding_box" data-name="bounding box" width="39.818" height="29.695" transform="translate(0 0.603)" fill="none"/>
      <g id="avatar_icon" data-name="avatar icon" transform="translate(5.588)">
        <path id="Path_85" data-name="Path 85" d="M108.381,489.964c1.339.158,2.34.215,3.315.4a8.059,8.059,0,0,1,6.3,8.3c-.1,1.242-.594,1.741-1.865,1.742q-12.326.018-24.652,0c-1.383,0-1.9-.55-1.924-1.928a8.039,8.039,0,0,1,7.917-8.339,6.491,6.491,0,0,0,1.594-.157c-3.591-2.32-5.614-5.454-5.554-9.716a10.072,10.072,0,0,1,3.3-7.356,10.286,10.286,0,0,1,14.586.524,9.744,9.744,0,0,1,2.667,8.879C113.479,485.673,111.55,488.112,108.381,489.964Zm-4.619,9.7q5.863,0,11.726,0c1.562,0,1.726-.187,1.659-1.778a7.038,7.038,0,0,0-6.979-6.934q-6.285-.183-12.579-.014a7.187,7.187,0,0,0-7.255,7.085c-.051,1.386.184,1.642,1.579,1.644Q97.837,499.675,103.763,499.667Zm-9.379-20.137c-.041.383-.081.578-.08.775a9.2,9.2,0,0,0,5.082,8.666,8.988,8.988,0,0,0,10.4-.957,9.247,9.247,0,0,0,3.47-9.442A2.7,2.7,0,0,0,111,476.18a2.569,2.569,0,0,0-3.017,1.33c-.843,1.829-2.225,2.087-3.982,2.042C100.834,479.472,97.667,479.529,94.384,479.529Zm.294-.979a1.016,1.016,0,0,0,.325.122c3.5.012,7,.06,10.5-.026a2.227,2.227,0,0,0,1.418-1.066,4.157,4.157,0,0,1,3.651-2.253c.374,0,.748,0,1.166,0-1.674-3.326-6.132-5.054-10.289-4.064C97.941,472.1,94.637,475.646,94.678,478.551Z" transform="translate(-89.553 -470.131)" fill="#0093d6" stroke="#0093d6" stroke-miterlimit="10" stroke-width="1"/>
        <path id="Path_86" data-name="Path 86" d="M104.128,509.441q-5.924,0-11.849,0c-1.394,0-1.63-.258-1.579-1.644a7.187,7.187,0,0,1,7.255-7.085q6.286-.17,12.579.014a7.038,7.038,0,0,1,6.979,6.934c.067,1.592-.1,1.776-1.659,1.778Q109.991,509.446,104.128,509.441Z" transform="translate(-89.919 -479.904)" fill="#fff" stroke="#0093d6" stroke-miterlimit="10" stroke-width="1"/>
        <path id="Path_87" data-name="Path 87" d="M96.624,482.347c3.283,0,6.45-.058,9.613.023,1.757.045,3.139-.213,3.982-2.042a2.569,2.569,0,0,1,3.017-1.33,2.7,2.7,0,0,1,2.262,2.391,9.247,9.247,0,0,1-3.47,9.442,8.988,8.988,0,0,1-10.4.958,9.2,9.2,0,0,1-5.082-8.666C96.543,482.925,96.583,482.73,96.624,482.347Z" transform="translate(-91.793 -472.949)" fill="#fff" stroke="#0093d6" stroke-miterlimit="10" stroke-width="1"/>
        <path id="Path_88" data-name="Path 88" d="M97.094,478.954c-.04-2.9,3.263-6.452,6.768-7.287,4.158-.99,8.615.738,10.289,4.064-.418,0-.792,0-1.166,0a4.157,4.157,0,0,0-3.651,2.253,2.226,2.226,0,0,1-1.418,1.066c-3.5.086-7,.038-10.5.026A1.02,1.02,0,0,1,97.094,478.954Z" transform="translate(-91.969 -470.534)" fill="#fff" stroke="#0093d6" stroke-miterlimit="10" stroke-width="1"/>
      </g>
    </g>
  </g>
</svg>
