<svg xmlns="http://www.w3.org/2000/svg" xmlns:xlink="http://www.w3.org/1999/xlink" width="46" height="47" viewBox="0 0 46 47">
  <defs>
    <clipPath id="clip-path">
      <rect id="Rectangle_791" data-name="Rectangle 791" width="46" height="47" transform="translate(5755 -3267)" fill="none" stroke="#7a7a7a" stroke-width="1"/>
    </clipPath>
  </defs>
  <g id="Mask_Group_20" data-name="Mask Group 20" transform="translate(-5755 3267)" clip-path="url(#clip-path)">
    <g id="Group_1105" data-name="Group 1105" transform="translate(5762 -3257.25)">
      <path id="Path_192" data-name="Path 192" d="M417.412,314.113c-2.157,0-4.315-.008-6.472,0a4.356,4.356,0,0,1-4.73-4.614q-.03-3.624-.009-7.248c.013-2.823,1.555-4.493,4.339-4.527,4.658-.058,9.318-.049,13.977-.013a3.709,3.709,0,0,1,3.952,3.48,81.392,81.392,0,0,1,.019,9.3c-.119,2.162-1.954,3.5-4.347,3.6-.086,0-.172,0-.259,0h-6.471Z" transform="translate(-398.431 -289.927)" fill="#fff"/>
      <path id="Path_193" data-name="Path 193" d="M408.719,288.881c2.29,0,4.581-.017,6.87,0a4.19,4.19,0,0,1,4.027,2.872c.392,1.15.179,1.478-1.073,1.487-3.327.023-6.658.12-9.981,0-4.1-.15-6.974,2.617-6.73,6.712.086,1.42.014,2.85,0,4.276-.011.923-.421,1.237-1.338.91a4.424,4.424,0,0,1-3.088-4.311c-.017-2.506-.017-5.013.013-7.518a4.4,4.4,0,0,1,4.431-4.427c1.167-.016,2.333-.01,3.5-.011q1.685,0,3.37,0Z" transform="translate(-395.748 -287.241)" fill="#fff"/>
      <rect id="Rectangle_785" data-name="Rectangle 785" width="24" height="18" rx="5" transform="translate(1 0.25)" fill="#0093d6"/>
      <rect id="Rectangle_786" data-name="Rectangle 786" width="24" height="18" rx="5" transform="translate(7 7.25)" fill="#fff"/>
      <path id="Path_191" data-name="Path 191" d="M408.023,286.545c2.289,0,4.58.064,6.866-.016a5.839,5.839,0,0,1,5.9,4.788,1.514,1.514,0,0,0,1.367,1.413,5.811,5.811,0,0,1,4.819,5.748c.06,2.633.078,5.27,0,7.9a6.12,6.12,0,0,1-6.3,6.042q-6.737.012-13.473,0a6.019,6.019,0,0,1-5.982-4.908c-.151-.776-.417-1.185-1.285-1.311a5.854,5.854,0,0,1-4.865-5.552q-.081-4.209-.014-8.42a5.734,5.734,0,0,1,5.581-5.67c2.459-.067,4.922-.013,7.383-.013Zm5.986,24.167v-.017h6.471c.087,0,.173,0,.259,0,2.392-.1,4.228-1.436,4.347-3.6a81.392,81.392,0,0,0-.019-9.3,3.709,3.709,0,0,0-3.952-3.48c-4.659-.036-9.319-.044-13.978.013-2.784.035-4.326,1.7-4.339,4.527q-.017,3.624.009,7.248a4.356,4.356,0,0,0,4.73,4.614C409.694,310.7,411.852,310.712,414.009,310.712ZM408,288.166v-.009q-1.685,0-3.37,0c-1.167,0-2.333,0-3.5.011A4.4,4.4,0,0,0,396.7,292.6c-.03,2.506-.03,5.013-.013,7.518a4.424,4.424,0,0,0,3.088,4.311c.918.327,1.327.013,1.338-.91.017-1.425.088-2.855,0-4.276-.245-4.095,2.631-6.861,6.73-6.712,3.323.122,6.653.025,9.981,0,1.251-.009,1.465-.337,1.073-1.487a4.19,4.19,0,0,0-4.027-2.872C412.579,288.149,410.288,288.166,408,288.166Z" transform="translate(-395.028 -286.526)" fill="#0093d6"/>
    </g>
  </g>
</svg>
