<svg xmlns="http://www.w3.org/2000/svg" xmlns:xlink="http://www.w3.org/1999/xlink" width="46" height="47" viewBox="0 0 46 47">
  <defs>
    <clipPath id="clip-path">
      <rect id="Rectangle_798" data-name="Rectangle 798" width="46" height="47" transform="translate(5756 -2793)" fill="none" stroke="#7a7a7a" stroke-width="1"/>
    </clipPath>
  </defs>
  <g id="Mask_Group_27" data-name="Mask Group 27" transform="translate(-5756 2793)" clip-path="url(#clip-path)">
    <g id="question" transform="translate(5762 -2785.396)">
      <path id="Path_211" data-name="Path 211" d="M33.863,33.789l-1.37-5.937-6.039,5.075Z" transform="translate(-3.779 -3.979)" fill="#0093d6"/>
      <circle id="Ellipse_31" data-name="Ellipse 31" cx="9.5" cy="9.5" r="9.5" transform="translate(12 12.396)" fill="#0093d6"/>
      <ellipse id="Ellipse_32" data-name="Ellipse 32" cx="10.5" cy="11" rx="10.5" ry="11" transform="translate(2 1.396)" fill="#fff"/>
      <path id="Path_179" data-name="Path 179" d="M32,21.656a10.367,10.367,0,0,0-7.575-9.968A12.218,12.218,0,1,0,1.694,18.429L.045,24.392l5.963-1.649a12.173,12.173,0,0,0,5.68,1.682,10.347,10.347,0,0,0,15.231,6.137l5.035,1.393-1.393-5.035A10.307,10.307,0,0,0,32,21.656Zm-25.7-.94-3.57.988.988-3.57L3.5,17.781a10.34,10.34,0,1,1,3.159,3.159Zm22.962,8.55-2.649-.733-.354.23a8.472,8.472,0,0,1-12.636-4.407A12.242,12.242,0,0,0,24.356,13.627a8.472,8.472,0,0,1,4.407,12.636l-.23.354Zm0,0" transform="translate(0)" fill="#0093d6"/>
      <path id="Path_180" data-name="Path 180" d="M180.5,271h1.875v1.875H180.5Zm0,0" transform="translate(-169.219 -254.063)" fill="#0093d6"/>
      <path id="Path_181" data-name="Path 181" d="M141.125,93.75a1.856,1.856,0,0,1-.61,1.384l-2.2,2.016v2.288h1.875V97.975l1.593-1.458A3.75,3.75,0,1,0,135.5,93.75h1.875a1.875,1.875,0,0,1,3.75,0Zm0,0" transform="translate(-127.031 -84.375)" fill="#0093d6"/>
    </g>
  </g>
</svg>
