<svg id="side_menu-_avatar" data-name="side menu- avatar" xmlns="http://www.w3.org/2000/svg" width="63" height="63" viewBox="0 0 63 63">
  <circle id="Ellipse_18" data-name="Ellipse 18" cx="31.5" cy="31.5" r="31.5" fill="#0093d6"/>
  <circle id="Ellipse_19" data-name="Ellipse 19" cx="29.5" cy="29.5" r="29.5" transform="translate(2 2)" fill="#fff"/>
  <g id="Group_109" data-name="Group 109" transform="translate(15 18.798)">
    <rect id="bounding_box" data-name="bounding box" width="33" height="25" transform="translate(0 0.202)" fill="none"/>
    <g id="avatar_icon" data-name="avatar icon" transform="translate(4.795)">
      <path id="Path_85" data-name="Path 85" d="M105.333,486.753c1.123.133,1.961.181,2.778.337a6.755,6.755,0,0,1,5.279,6.953c-.08,1.041-.5,1.459-1.563,1.46q-10.33.015-20.66,0c-1.159,0-1.588-.461-1.612-1.616A6.738,6.738,0,0,1,96.19,486.9a5.444,5.444,0,0,0,1.336-.132c-3.009-1.944-4.7-4.57-4.655-8.143a8.441,8.441,0,0,1,2.768-6.165,8.621,8.621,0,0,1,12.224.439,8.167,8.167,0,0,1,2.235,7.441A9.008,9.008,0,0,1,105.333,486.753Zm-3.871,8.132q4.914,0,9.828,0c1.309,0,1.447-.157,1.39-1.49a5.9,5.9,0,0,0-5.849-5.811q-5.268-.154-10.542-.012a6.023,6.023,0,0,0-6.08,5.938c-.043,1.161.154,1.376,1.323,1.378Q96.5,494.892,101.462,494.884ZM93.6,478.008c-.034.321-.068.485-.067.649a7.712,7.712,0,0,0,4.259,7.263,7.532,7.532,0,0,0,8.719-.8,7.75,7.75,0,0,0,2.908-7.913,2.263,2.263,0,0,0-1.9-2A2.153,2.153,0,0,0,105,476.315c-.707,1.533-1.865,1.749-3.337,1.711C99.007,477.959,96.353,478.008,93.6,478.008Zm.246-.82a.851.851,0,0,0,.273.1c2.932.01,5.866.05,8.8-.022a1.866,1.866,0,0,0,1.189-.893,3.484,3.484,0,0,1,3.059-1.889c.313,0,.627,0,.977,0-1.4-2.787-5.139-4.236-8.623-3.406C96.583,471.78,93.814,474.753,93.848,477.187Z" transform="translate(-89.553 -470.131)" stroke="#1b1e1f" stroke-miterlimit="10" stroke-width="2"/>
      <path id="Path_86" data-name="Path 86" d="M101.953,508.014q-4.965,0-9.931,0c-1.169,0-1.366-.216-1.323-1.378a6.023,6.023,0,0,1,6.08-5.938q5.268-.143,10.542.012a5.9,5.9,0,0,1,5.849,5.811c.056,1.334-.081,1.489-1.39,1.49Q106.867,508.018,101.953,508.014Z" transform="translate(-90.044 -483.26)" fill="#fff" stroke="#1b1e1f" stroke-miterlimit="10" stroke-width="2"/>
      <path id="Path_87" data-name="Path 87" d="M96.611,481.793c2.751,0,5.405-.048,8.056.019,1.473.038,2.631-.179,3.337-1.711a2.153,2.153,0,0,1,2.529-1.115,2.263,2.263,0,0,1,1.9,2,7.75,7.75,0,0,1-2.908,7.913,7.532,7.532,0,0,1-8.719.8,7.712,7.712,0,0,1-4.259-7.263C96.543,482.277,96.577,482.113,96.611,481.793Z" transform="translate(-92.563 -473.916)" fill="#fff" stroke="#1b1e1f" stroke-miterlimit="10" stroke-width="2"/>
      <path id="Path_88" data-name="Path 88" d="M97.094,477.729c-.034-2.434,2.735-5.407,5.672-6.107,3.484-.83,7.22.619,8.623,3.406-.35,0-.664,0-.977,0a3.484,3.484,0,0,0-3.059,1.889,1.866,1.866,0,0,1-1.189.893c-2.931.072-5.864.032-8.8.022A.853.853,0,0,1,97.094,477.729Z" transform="translate(-92.799 -470.673)" fill="#fff" stroke="#1b1e1f" stroke-miterlimit="10" stroke-width="2"/>
    </g>
  </g>
</svg>
