<svg xmlns="http://www.w3.org/2000/svg" xmlns:xlink="http://www.w3.org/1999/xlink" width="46" height="47" viewBox="0 0 46 47">
  <defs>
    <clipPath id="clip-path">
      <rect id="Rectangle_805" data-name="Rectangle 805" width="46" height="47" transform="translate(20 672)" fill="none" stroke="#7a7a7a" stroke-width="1"/>
    </clipPath>
    <clipPath id="clip-path-2">
      <rect id="frame_icon" data-name="frame icon" width="34.275" height="25.603" fill="none"/>
    </clipPath>
  </defs>
  <g id="Mask_Group_34" data-name="Mask Group 34" transform="translate(-20 -672)" clip-path="url(#clip-path)">
    <g id="danh-sach-yeu-cau-bu-icon" transform="translate(20 677.353)">
      <g id="Group_1129" data-name="Group 1129" transform="translate(19.107 16.032) rotate(9)">
        <path id="Path_233" data-name="Path 233" d="M7,17.617a.5.5,0,0,0,.5.5h3.112a.5.5,0,0,0,.5-.5v-.965a7.793,7.793,0,0,0,1.868-.774l.681.681a.5.5,0,0,0,.7,0l2.2-2.2a.5.5,0,0,0,0-.7l-.68-.68a7.793,7.793,0,0,0,.774-1.868h.961a.5.5,0,0,0,.5-.5V7.5a.5.5,0,0,0-.5-.5h-.961a7.794,7.794,0,0,0-.774-1.868l.677-.677a.5.5,0,0,0,0-.7l-2.2-2.2a.5.5,0,0,0-.7,0l-.676.676a7.793,7.793,0,0,0-1.868-.774V.5a.5.5,0,0,0-.5-.5H7.5A.5.5,0,0,0,7,.5v.956a7.786,7.786,0,0,0-1.868.774l-.676-.676a.5.5,0,0,0-.7,0l-2.2,2.2a.5.5,0,0,0,0,.7l.677.677A7.792,7.792,0,0,0,1.459,7H.5a.5.5,0,0,0-.5.5l0,3.112a.5.5,0,0,0,.5.5h.961a7.793,7.793,0,0,0,.774,1.868l-.68.68a.5.5,0,0,0,0,.7l2.2,2.2a.5.5,0,0,0,.352.146h0a.5.5,0,0,0,.352-.146l.681-.681A7.8,7.8,0,0,0,7,16.652ZM5.332,14.832a.5.5,0,0,0-.622.066L4.1,15.5l-1.5-1.5.605-.606a.5.5,0,0,0,.066-.622A6.812,6.812,0,0,1,2.337,10.5a.5.5,0,0,0-.487-.393H1V7.995H1.85A.5.5,0,0,0,2.337,7.6a6.813,6.813,0,0,1,.943-2.275A.5.5,0,0,0,3.213,4.7l-.6-.6,1.5-1.5.6.6a.5.5,0,0,0,.622.066,6.809,6.809,0,0,1,2.275-.943A.5.5,0,0,0,8,1.845V1h2.116v.85a.5.5,0,0,0,.393.487,6.815,6.815,0,0,1,2.275.943.5.5,0,0,0,.622-.066l.6-.6,1.5,1.5-.6.6a.5.5,0,0,0-.066.622A6.816,6.816,0,0,1,15.779,7.6a.5.5,0,0,0,.487.393h.855v2.116h-.855a.5.5,0,0,0-.487.393,6.811,6.811,0,0,1-.943,2.275.5.5,0,0,0,.066.622l.605.605-1.5,1.5-.606-.606a.5.5,0,0,0-.622-.066,6.817,6.817,0,0,1-2.275.943.5.5,0,0,0-.393.487v.859H8v-.859a.5.5,0,0,0-.393-.487,6.812,6.812,0,0,1-2.275-.943Zm0,0" transform="translate(0 0)" fill="#0093d6"/>
        <path id="Path_234" data-name="Path 234" d="M8.224,4.112A4.112,4.112,0,1,0,4.112,8.224,4.117,4.117,0,0,0,8.224,4.112ZM1,4.112A3.117,3.117,0,1,1,4.112,7.229,3.12,3.12,0,0,1,1,4.112Zm0,0" transform="translate(4.946 4.945)" fill="#0093d6"/>
        <ellipse id="Ellipse_34" data-name="Ellipse 34" cx="4.469" cy="4.469" rx="4.469" ry="4.469" transform="translate(4.726 4.687)" fill="#0093d6"/>
      </g>
      <rect id="Rectangle_810" data-name="Rectangle 810" width="6.204" height="5.318" transform="translate(15.997 22.077)" fill="#fff"/>
      <ellipse id="Ellipse_33" data-name="Ellipse 33" cx="11.522" cy="11.522" rx="11.522" ry="11.522" transform="translate(7.134 1.691)" fill="#fff"/>
      <g id="Group_33" data-name="Group 33" transform="translate(1.349 0.758)" clip-path="url(#clip-path-2)">
        <path id="Path_226" data-name="Path 226" d="M228.287,62.9c0-.646.592-1.184,2.449-1.184a11.624,11.624,0,0,1,5.248,1.4l1.911-4.6a14.052,14.052,0,0,0-5.463-1.561v-2.88h-3.795v2.934c-4.413.619-6.62,3.176-6.62,6.217,0,7.024,10.415,5.113,10.415,7.482,0,.646-.646,1.023-2.449,1.023a12.923,12.923,0,0,1-6.217-1.723l-2.045,4.629a15.838,15.838,0,0,0,6.916,1.884v2.853h3.795V76.384c4.171-.727,6.271-3.256,6.271-6.163C238.7,63.278,228.287,65.162,228.287,62.9Z" transform="translate(-212.86 -54.074)" fill="#0093d6"/>
      </g>
    </g>
  </g>
</svg>
