<svg xmlns="http://www.w3.org/2000/svg" xmlns:xlink="http://www.w3.org/1999/xlink" width="46" height="47" viewBox="0 0 46 47">
  <defs>
    <clipPath id="clip-path">
      <rect id="Rectangle_793" data-name="Rectangle 793" width="46" height="47" transform="translate(5756 -3133)" fill="none" stroke="#7a7a7a" stroke-width="1"/>
    </clipPath>
  </defs>
  <g id="Mask_Group_22" data-name="Mask Group 22" transform="translate(-5756 3133)" clip-path="url(#clip-path)">
    <g id="the_tin_dung_icon" data-name="the tin dung icon" transform="translate(5757.697 -3123.594)">
      <g id="Path_61" data-name="Path 61" transform="translate(4.643 4.702)" fill="#0093d6">
        <path d="M 29.34387969970703 20.83960151672363 L 2.405239343643188 20.83960151672363 C 1.492539405822754 20.83960151672363 0.7499994039535522 19.96542167663574 0.7499994039535522 18.89090156555176 L 0.7499994039535522 2.698700666427612 C 0.7499994039535522 1.624180793762207 1.492539405822754 0.7500007748603821 2.405239343643188 0.7500007748603821 L 29.34387969970703 0.7500007748603821 C 30.2565803527832 0.7500007748603821 30.99911880493164 1.624180793762207 30.99911880493164 2.698700666427612 L 30.99911880493164 18.89090156555176 C 30.99911880493164 19.96542167663574 30.2565803527832 20.83960151672363 29.34387969970703 20.83960151672363 Z" stroke="none"/>
        <path d="M 2.405239105224609 1.5 C 1.914548873901367 1.5 1.5 2.048940658569336 1.5 2.698699951171875 L 1.5 18.89090156555176 C 1.5 19.5406608581543 1.914548873901367 20.08960151672363 2.405239105224609 20.08960151672363 L 29.34387969970703 20.08960151672363 C 29.83456993103027 20.08960151672363 30.24911880493164 19.5406608581543 30.24911880493164 18.89090156555176 L 30.24911880493164 2.698699951171875 C 30.24911880493164 2.048940658569336 29.83456993103027 1.5 29.34387969970703 1.5 L 2.405239105224609 1.5 M 2.405239105224609 0 L 29.34387969970703 0 C 30.67226028442383 0 31.74911880493164 1.208250045776367 31.74911880493164 2.698699951171875 L 31.74911880493164 18.89090156555176 C 31.74911880493164 20.38135147094727 30.67226028442383 21.58960151672363 29.34387969970703 21.58960151672363 L 2.405239105224609 21.58960151672363 C 1.076858520507813 21.58960151672363 0 20.38135147094727 0 18.89090156555176 L 0 2.698699951171875 C 0 1.208250045776367 1.076858520507813 0 2.405239105224609 0 Z" stroke="none" fill="#0093d6"/>
      </g>
      <path id="Intersection_1" data-name="Intersection 1" d="M2,18.909a2,2,0,0,1-2-2V2A2,2,0,0,1,2,0H22.8l.037.136L12.891,9.869l9.943,8.964.012.076Z" transform="translate(5.141 5.971)" fill="#fff" stroke="#0093d6" stroke-width="1.5"/>
      <g id="Rectangle_22" data-name="Rectangle 22" transform="translate(10.615 7.926) rotate(45)" fill="#fff" stroke="#0093d6" stroke-width="1.5">
        <rect width="4.976" height="4.976" stroke="none"/>
        <rect x="0.75" y="0.75" width="3.476" height="3.476" fill="none"/>
      </g>
      <rect id="frame_icon" data-name="frame icon" width="41.302" height="30.852" fill="none"/>
    </g>
  </g>
</svg>
