<svg xmlns="http://www.w3.org/2000/svg" xmlns:xlink="http://www.w3.org/1999/xlink" width="46" height="47" viewBox="0 0 46 47">
  <defs>
    <clipPath id="clip-path">
      <rect id="Rectangle_795" data-name="Rectangle 795" width="46" height="47" transform="translate(5755 -2993)" fill="none" stroke="#7a7a7a" stroke-width="1"/>
    </clipPath>
  </defs>
  <g id="Mask_Group_24" data-name="Mask Group 24" transform="translate(-5755 2993)" clip-path="url(#clip-path)">
    <g id="xem-ho-so-khach-hang-icon" transform="translate(5762.609 -2984.141)">
      <g id="avatar_icon" data-name="avatar icon" transform="translate(15.345 6.075)">
        <path id="Path_85" data-name="Path 85" d="M100.167,481.1c.755.088,1.319.119,1.869.222a4.471,4.471,0,0,1,3.551,4.587c-.054.687-.335.963-1.051.963q-6.948.01-13.9,0c-.78,0-1.068-.3-1.085-1.066a4.484,4.484,0,0,1,4.463-4.61,3.735,3.735,0,0,0,.9-.087,5.991,5.991,0,0,1-3.131-5.372,5.522,5.522,0,0,1,1.862-4.067,5.879,5.879,0,0,1,8.223.29,5.32,5.32,0,0,1,1.5,4.909A5.954,5.954,0,0,1,100.167,481.1Zm-2.6,5.364q3.305,0,6.611,0c.88,0,.973-.1.935-.983a3.93,3.93,0,0,0-3.934-3.834q-3.543-.1-7.091-.008a4.015,4.015,0,0,0-4.09,3.917c-.029.766.1.908.89.909Q94.223,486.465,97.563,486.46Zm-5.287-11.133c-.023.211-.046.32-.045.428a5.073,5.073,0,0,0,2.865,4.791,5.146,5.146,0,0,0,5.865-.529,5.062,5.062,0,0,0,1.956-5.22,1.506,1.506,0,0,0-1.275-1.322,1.458,1.458,0,0,0-1.7.735A2.036,2.036,0,0,1,97.7,475.34C95.912,475.3,94.127,475.327,92.276,475.327Zm.165-.541a.581.581,0,0,0,.183.068c1.973.007,3.946.033,5.917-.014a1.253,1.253,0,0,0,.8-.589A2.349,2.349,0,0,1,101.4,473c.211,0,.422,0,.657,0-.944-1.839-3.457-2.794-5.8-2.247C94.282,471.219,92.419,473.18,92.442,474.786Z" transform="translate(-89.553 -470.131)" stroke="#0093d6" stroke-miterlimit="10" stroke-width="1"/>
        <path id="Path_86" data-name="Path 86" d="M98.205,506.267q-3.312,0-6.625,0c-.78,0-.911-.165-.883-1.052.082-2.554,1.728-4.46,4.056-4.533s4.69-.069,7.033.009c2.216.073,3.81,1.956,3.9,4.436.038,1.018-.054,1.136-.927,1.138Q101.483,506.27,98.205,506.267Z" transform="translate(-90.198 -490.002)" fill="#fff" stroke="#0093d6" stroke-miterlimit="10" stroke-width="1"/>
        <path id="Path_87" data-name="Path 87" d="M96.586,481.114c1.729,0,3.4-.037,5.063.015a1.833,1.833,0,0,0,2.1-1.306,1.285,1.285,0,0,1,1.589-.851,1.621,1.621,0,0,1,1.192,1.529,6.622,6.622,0,0,1-1.828,6.04,4.09,4.09,0,0,1-5.48.613,6.173,6.173,0,0,1-2.677-5.544C96.544,481.484,96.565,481.359,96.586,481.114Z" transform="translate(-93.505 -476.072)" fill="#fff" stroke="#0093d6" stroke-miterlimit="10" stroke-width="1"/>
        <path id="Path_88" data-name="Path 88" d="M97.094,476.229a5.448,5.448,0,0,1,3.567-4.662,4.519,4.519,0,0,1,5.424,2.6c-.22,0-.418,0-.615,0a2.189,2.189,0,0,0-1.924,1.442c-.157.307-.489.674-.748.682-1.843.055-3.689.024-5.533.017C97.207,476.307,97.148,476.255,97.094,476.229Z" transform="translate(-93.924 -470.842)" fill="#fff" stroke="#0093d6" stroke-miterlimit="10" stroke-width="1"/>
      </g>
      <g id="avatar_icon-2" data-name="avatar icon">
        <path id="Path_85-2" data-name="Path 85" d="M108.143,489.335c1.322.154,2.31.208,3.273.389a7.83,7.83,0,0,1,6.219,8.034c-.095,1.2-.586,1.686-1.841,1.687q-12.17.017-24.339,0c-1.365,0-1.871-.533-1.9-1.867a7.853,7.853,0,0,1,7.816-8.074,6.539,6.539,0,0,0,1.573-.152c-3.545-2.247-5.543-5.281-5.484-9.408a9.671,9.671,0,0,1,3.261-7.123,10.3,10.3,0,0,1,14.4.507,9.317,9.317,0,0,1,2.633,8.6C113.176,485.18,111.272,487.542,108.143,489.335Zm-4.56,9.395q5.789,0,11.578,0c1.542,0,1.7-.181,1.638-1.722a6.883,6.883,0,0,0-6.891-6.714q-6.206-.178-12.42-.014a7.032,7.032,0,0,0-7.163,6.86c-.05,1.342.182,1.59,1.559,1.592Q97.733,498.739,103.582,498.73Zm-9.26-19.5c-.04.37-.08.56-.079.75a8.886,8.886,0,0,0,5.017,8.392,9.013,9.013,0,0,0,10.272-.927,8.865,8.865,0,0,0,3.426-9.142,2.637,2.637,0,0,0-2.234-2.315,2.554,2.554,0,0,0-2.979,1.288c-.833,1.771-2.2,2.021-3.932,1.977C100.691,479.175,97.564,479.231,94.323,479.231Zm.29-.948a1.018,1.018,0,0,0,.321.118c3.455.012,6.911.058,10.363-.025a2.2,2.2,0,0,0,1.4-1.032,4.114,4.114,0,0,1,3.6-2.182c.369,0,.739,0,1.151,0-1.653-3.22-6.054-4.894-10.159-3.935C97.835,472.037,94.573,475.471,94.613,478.284Z" transform="translate(-89.553 -470.131)" fill="#0093d6" stroke="#0093d6" stroke-miterlimit="10" stroke-width="1"/>
        <path id="Path_86-2" data-name="Path 86" d="M103.916,509.776q-5.831,0-11.663,0c-1.372,0-1.6-.268-1.554-1.706a7.266,7.266,0,0,1,7.141-7.355q6.187-.177,12.381.015c3.9.119,6.707,3.174,6.869,7.2.066,1.652-.1,1.844-1.633,1.846Q109.687,509.781,103.916,509.776Z" transform="translate(-89.889 -481.229)" fill="#fff" stroke="#0093d6" stroke-miterlimit="10" stroke-width="1"/>
        <path id="Path_87-2" data-name="Path 87" d="M96.621,482.477c3.16,0,6.209-.06,9.254.024,1.692.047,3.022-.222,3.833-2.12a2.415,2.415,0,0,1,2.9-1.38,2.721,2.721,0,0,1,2.178,2.482,10,10,0,0,1-3.34,9.8,8.16,8.16,0,0,1-10.015.994c-3.282-1.885-4.886-4.971-4.892-9C96.543,483.078,96.582,482.875,96.621,482.477Z" transform="translate(-91.613 -473.501)" fill="#fff" stroke="#0093d6" stroke-miterlimit="10" stroke-width="1"/>
        <path id="Path_88-2" data-name="Path 88" d="M97.094,479.242c-.039-3.015,3.187-6.7,6.609-7.564,4.06-1.028,8.412.766,10.047,4.218-.408,0-.774,0-1.139,0a4.04,4.04,0,0,0-3.565,2.339c-.29.5-.906,1.093-1.385,1.106-3.415.089-6.833.04-10.25.027A.958.958,0,0,1,97.094,479.242Z" transform="translate(-91.951 -470.502)" fill="#0093d6" stroke="#0093d6" stroke-miterlimit="10" stroke-width="1"/>
      </g>
    </g>
  </g>
</svg>
