<svg width="46" height="46" viewBox="0 0 46 46" fill="none" xmlns="http://www.w3.org/2000/svg">
<path d="M24 0H0L46 46V21.7634L24 0Z" fill="#FFFF00"/>
<path d="M25.8069 8.39881L19.7744 14.4313L18.7344 13.3914L24.7669 7.35886L25.8069 8.39881ZM25.6287 13.4991L24.8042 14.3236L22.078 11.5974L22.9025 10.7729L25.6287 13.4991ZM28.6118 11.2038L27.7832 12.0324L24.7131 8.96228L25.5417 8.13364L28.6118 11.2038ZM27.8329 15.231L24.2035 18.8604L23.205 17.8619L27.6879 13.3789L28.6408 14.3319L27.8329 15.231ZM30.0868 15.7198L29.1504 16.6396C29.1007 16.5678 29.0427 16.4932 28.9764 16.4159C28.9129 16.3413 28.8466 16.2695 28.7776 16.2005C28.6063 16.0292 28.4309 15.9035 28.2514 15.8234C28.0746 15.7406 27.8964 15.7005 27.7169 15.7033C27.5429 15.706 27.3689 15.7475 27.1949 15.8276C27.0208 15.9077 26.851 16.0223 26.6852 16.1715L26.4408 15.9602C26.7225 15.6784 27.0112 15.445 27.3067 15.26C27.6023 15.0749 27.8964 14.9465 28.1892 14.8746C28.4848 14.8056 28.7679 14.8042 29.0386 14.8705C29.312 14.9395 29.5606 15.0859 29.7844 15.3097C29.8451 15.3704 29.9045 15.4409 29.9625 15.521C30.0233 15.6038 30.0647 15.6701 30.0868 15.7198ZM28.0111 22.8337C27.6796 22.5023 27.4338 22.1487 27.2736 21.7731C27.1189 21.3974 27.0457 21.0176 27.054 20.6337C27.065 20.2525 27.1534 19.8796 27.3192 19.515C27.4849 19.1504 27.721 18.8148 28.0276 18.5082L28.1934 18.3425C28.5442 17.9917 28.9129 17.7252 29.2996 17.5429C29.6863 17.3606 30.0716 17.2597 30.4556 17.2404C30.8423 17.2183 31.2138 17.2777 31.5701 17.4186C31.9264 17.5594 32.2496 17.7749 32.5396 18.0649C32.86 18.3853 33.0865 18.7195 33.2191 19.0676C33.3517 19.4156 33.3986 19.7664 33.3599 20.1199C33.3268 20.4735 33.2149 20.8229 33.0243 21.1682C32.8365 21.5162 32.581 21.8518 32.2579 22.175L31.8311 22.6017L28.3674 19.138L29.0842 18.4212L31.5618 20.8989L31.6405 20.8201C31.8145 20.6351 31.9471 20.4307 32.0383 20.2069C32.1322 19.986 32.1612 19.7609 32.1253 19.5316C32.0894 19.3023 31.9609 19.0772 31.74 18.8563C31.5742 18.6905 31.3905 18.5787 31.1889 18.5207C30.9928 18.4626 30.7856 18.4571 30.5674 18.5041C30.3492 18.551 30.1227 18.645 29.8879 18.7858C29.6587 18.9267 29.428 19.1131 29.196 19.3452L29.0303 19.5109C28.8342 19.707 28.6781 19.9155 28.5621 20.1365C28.4516 20.3575 28.3867 20.5826 28.3674 20.8118C28.348 21.0411 28.377 21.2662 28.4544 21.4872C28.5345 21.7054 28.6698 21.9098 28.8604 22.1004C29.1007 22.3407 29.3631 22.5064 29.6476 22.5976C29.9321 22.6887 30.2318 22.715 30.5467 22.6763L30.5633 23.7121C30.3257 23.7563 30.0647 23.766 29.7802 23.7411C29.4985 23.7135 29.2057 23.6278 28.9019 23.4842C28.6008 23.3433 28.3039 23.1265 28.0111 22.8337ZM32.5603 27.383C32.2288 27.0515 31.983 26.698 31.8228 26.3223C31.6681 25.9467 31.5949 25.5669 31.6032 25.1829C31.6143 24.8018 31.7027 24.4289 31.8684 24.0643C32.0341 23.6997 32.2703 23.3641 32.5769 23.0575L32.7426 22.8917C33.0934 22.5409 33.4621 22.2744 33.8488 22.0921C34.2355 21.9098 34.6209 21.809 35.0048 21.7896C35.3915 21.7675 35.763 21.8269 36.1193 21.9678C36.4756 22.1087 36.7988 22.3241 37.0888 22.6141C37.4092 22.9345 37.6357 23.2688 37.7683 23.6168C37.9009 23.9648 37.9479 24.3156 37.9092 24.6692C37.876 25.0227 37.7642 25.3721 37.5736 25.7174C37.3858 26.0654 37.1303 26.401 36.8071 26.7242L36.3803 27.1509L32.9166 23.6872L33.6334 22.9705L36.111 25.4481L36.1898 25.3694C36.3638 25.1843 36.4963 24.9799 36.5875 24.7562C36.6814 24.5352 36.7104 24.3101 36.6745 24.0808C36.6386 23.8516 36.5102 23.6265 36.2892 23.4055C36.1235 23.2398 35.9398 23.1279 35.7381 23.0699C35.542 23.0119 35.3349 23.0064 35.1167 23.0533C34.8985 23.1003 34.672 23.1942 34.4372 23.3351C34.2079 23.4759 33.9773 23.6624 33.7453 23.8944L33.5795 24.0601C33.3834 24.2562 33.2274 24.4648 33.1114 24.6857C33.0009 24.9067 32.936 25.1318 32.9166 25.3611C32.8973 25.5903 32.9263 25.8155 33.0036 26.0364C33.0837 26.2546 33.2191 26.459 33.4097 26.6496C33.65 26.8899 33.9124 27.0557 34.1969 27.1468C34.4814 27.238 34.7811 27.2642 35.0959 27.2255L35.1125 28.2613C34.875 28.3055 34.614 28.3152 34.3295 28.2903C34.0477 28.2627 33.7549 28.1771 33.4511 28.0335C33.15 27.8926 32.8531 27.6758 32.5603 27.383Z" fill="#FE9900"/>
</svg>
