<svg width="15" height="18" viewBox="0 0 15 18" fill="none" xmlns="http://www.w3.org/2000/svg">
<path d="M10.949 16.6335L8.50817 18L8.97408 15.106L7 13.0558L9.72899 12.6331L10.949 10L12.1698 12.6331L14.898 13.0558L12.9239 15.106L13.389 18L10.949 16.6335Z" fill="#FF5C00"/>
<path d="M6.39832 10.6147V12.2477C5.12562 12.2477 3.90505 12.7638 3.00511 13.6826C2.10518 14.6013 1.59957 16.7007 1.59957 18H0C0 16.2676 0.674129 13.7529 1.87404 12.5279C3.07396 11.3029 4.70139 10.6147 6.39832 10.6147ZM6.39832 9.79814C3.74703 9.79814 1.5996 7.60581 1.5996 4.89907C1.5996 2.19233 3.74703 0 6.39832 0C9.04961 0 11.197 2.19233 11.197 4.89907C11.197 7.60581 9.04961 9.79814 6.39832 9.79814ZM6.39832 8.16512C8.16585 8.16512 9.59747 6.70356 9.59747 4.89907C9.59747 3.09458 8.16585 1.63302 6.39832 1.63302C4.63079 1.63302 3.19917 3.09458 3.19917 4.89907C3.19917 6.70356 4.63079 8.16512 6.39832 8.16512Z" fill="#555555"/>
</svg>
