<svg width="18" height="18" viewBox="0 0 18 18" fill="none" xmlns="http://www.w3.org/2000/svg">
<path d="M16.046 4.2813L14.2631 6.0813V1.8H6.24011V6.3H1.7829V16.2H14.2631V13.7187L16.046 11.9187V17.1072C16.0457 17.3441 15.9524 17.5712 15.7864 17.7386C15.6204 17.906 15.3954 18 15.1608 18H0.885223C0.768157 17.9992 0.652397 17.9751 0.544555 17.9291C0.436713 17.8831 0.338899 17.8161 0.2567 17.7319C0.174501 17.6478 0.109526 17.5481 0.065485 17.4386C0.021444 17.3291 -0.000800339 17.2119 2.19945e-05 17.0937V5.4L5.35134 0H15.1527C15.6448 0 16.046 0.4095 16.046 0.8928V4.2813ZM16.7395 6.1263L18 7.3998L11.0664 14.4L9.80409 14.3982L9.80587 13.1274L16.7395 6.1272V6.1263Z" fill="#555555"/>
</svg>
