<svg width="25" height="23" viewBox="0 0 25 23" fill="none" xmlns="http://www.w3.org/2000/svg">
<path d="M1.25 0H23.75C24.0815 0 24.3995 0.134623 24.6339 0.374252C24.8683 0.613882 25 0.93889 25 1.27778V21.7222C25 22.0611 24.8683 22.3861 24.6339 22.6257C24.3995 22.8654 24.0815 23 23.75 23H1.25C0.918479 23 0.600537 22.8654 0.366116 22.6257C0.131696 22.3861 0 22.0611 0 21.7222V1.27778C0 0.93889 0.131696 0.613882 0.366116 0.374252C0.600537 0.134623 0.918479 0 1.25 0ZM12.575 11.0949L4.56 4.13744L2.94125 6.08478L12.5912 14.4606L22.0675 6.07839L20.4325 4.14511L12.5763 11.0949H12.575Z" fill="#1F9AD6"/>
</svg>
