<svg width="25" height="25" viewBox="0 0 25 25" fill="none" xmlns="http://www.w3.org/2000/svg">
<path d="M24.9986 18.6389V23.55C24.9988 23.9016 24.8656 24.2402 24.6258 24.4975C24.3861 24.7547 24.0578 24.9115 23.707 24.9361C23.1001 24.9778 22.6043 25 22.221 25C9.94806 25 0 15.0514 0 2.77778C0 2.39444 0.0208322 1.89861 0.0638853 1.29167C0.0884984 0.940894 0.245238 0.612515 0.502477 0.37279C0.759716 0.133065 1.0983 -0.000158935 1.44992 3.5636e-07H6.36076C6.53302 -0.000174076 6.69921 0.0636931 6.82702 0.179195C6.95484 0.294697 7.03516 0.453587 7.05239 0.625C7.08433 0.944445 7.11349 1.19861 7.14127 1.39167C7.41727 3.31795 7.98289 5.19143 8.81896 6.94861C8.95089 7.22639 8.86479 7.55833 8.6148 7.73611L5.61774 9.87778C7.45022 14.1479 10.8529 17.5508 15.1228 19.3833L17.2615 16.3917C17.349 16.2694 17.4765 16.1818 17.6219 16.144C17.7674 16.1061 17.9214 16.1206 18.0573 16.1847C19.8142 17.0193 21.6871 17.5835 23.6126 17.8583C23.8056 17.8861 24.0598 17.9167 24.3764 17.9472C24.5476 17.9648 24.7061 18.0452 24.8213 18.173C24.9365 18.3008 25.0002 18.4668 25 18.6389H24.9986Z" fill="#1F9AD6"/>
</svg>
