<svg width="120" height="42" viewBox="0 0 120 42" fill="none" xmlns="http://www.w3.org/2000/svg">
<rect width="120" height="42" fill="#44BB13"/>
<path d="M43.3477 14H42.1328L42.1406 13.2227H43.3477C43.6992 13.2227 43.9935 13.1458 44.2305 12.9922C44.4701 12.8385 44.6497 12.6185 44.7695 12.332C44.8919 12.0456 44.9531 11.7044 44.9531 11.3086V11C44.9531 10.6927 44.918 10.4206 44.8477 10.1836C44.7799 9.94661 44.6784 9.7474 44.543 9.58594C44.4102 9.42448 44.2461 9.30208 44.0508 9.21875C43.8581 9.13542 43.6354 9.09375 43.3828 9.09375H42.1094V8.3125H43.3828C43.7604 8.3125 44.1055 8.3763 44.418 8.50391C44.7305 8.62891 45 8.8099 45.2266 9.04688C45.4557 9.28385 45.6315 9.56771 45.7539 9.89844C45.8763 10.2292 45.9375 10.599 45.9375 11.0078V11.3086C45.9375 11.7174 45.8763 12.0872 45.7539 12.418C45.6315 12.7487 45.4557 13.0326 45.2266 13.2695C44.9974 13.5039 44.724 13.6849 44.4062 13.8125C44.0911 13.9375 43.7383 14 43.3477 14ZM42.6758 8.3125V14H41.6953V8.3125H42.6758ZM43.7148 10.7969V11.4453H41.0898V10.7969H43.7148ZM49.0508 9.07031L47.3516 14H46.3242L48.4648 8.3125H49.1211L49.0508 9.07031ZM50.4727 14L48.7695 9.07031L48.6953 8.3125H49.3555L51.5039 14H50.4727ZM50.3906 11.8906V12.668H47.2969V11.8906H50.3906ZM49.7773 6.83594L50.3516 6.87891C50.3516 7.06901 50.3138 7.23958 50.2383 7.39062C50.1628 7.53906 50.0599 7.65625 49.9297 7.74219C49.7995 7.82812 49.6523 7.87109 49.4883 7.87109C49.3607 7.87109 49.2526 7.85286 49.1641 7.81641C49.0755 7.77995 48.9948 7.73828 48.9219 7.69141C48.849 7.64453 48.7734 7.60417 48.6953 7.57031C48.6198 7.53385 48.5299 7.51562 48.4258 7.51562C48.3268 7.51562 48.2422 7.55208 48.1719 7.625C48.1042 7.69792 48.0703 7.79557 48.0703 7.91797L47.4922 7.88672C47.4922 7.69922 47.5299 7.52995 47.6055 7.37891C47.681 7.22786 47.7839 7.10807 47.9141 7.01953C48.0443 6.93099 48.1914 6.88672 48.3555 6.88672C48.4622 6.88672 48.5586 6.90495 48.6445 6.94141C48.7331 6.97526 48.8164 7.01562 48.8945 7.0625C48.9753 7.10938 49.0573 7.15104 49.1406 7.1875C49.224 7.22396 49.3164 7.24219 49.418 7.24219C49.5169 7.24219 49.6016 7.20443 49.6719 7.12891C49.7422 7.05339 49.7773 6.95573 49.7773 6.83594ZM55.9023 14H54.6875L54.6953 13.2227H55.9023C56.2539 13.2227 56.5482 13.1458 56.7852 12.9922C57.0247 12.8385 57.2044 12.6185 57.3242 12.332C57.4466 12.0456 57.5078 11.7044 57.5078 11.3086V11C57.5078 10.6927 57.4727 10.4206 57.4023 10.1836C57.3346 9.94661 57.2331 9.7474 57.0977 9.58594C56.9648 9.42448 56.8008 9.30208 56.6055 9.21875C56.4128 9.13542 56.1901 9.09375 55.9375 9.09375H54.6641V8.3125H55.9375C56.3151 8.3125 56.6602 8.3763 56.9727 8.50391C57.2852 8.62891 57.5547 8.8099 57.7812 9.04688C58.0104 9.28385 58.1862 9.56771 58.3086 9.89844C58.431 10.2292 58.4922 10.599 58.4922 11.0078V11.3086C58.4922 11.7174 58.431 12.0872 58.3086 12.418C58.1862 12.7487 58.0104 13.0326 57.7812 13.2695C57.5521 13.5039 57.2786 13.6849 56.9609 13.8125C56.6458 13.9375 56.293 14 55.9023 14ZM55.2305 8.3125V14H54.25V8.3125H55.2305ZM56.2695 10.7969V11.4453H53.6445V10.7969H56.2695ZM61.6055 9.07031L59.9062 14H58.8789L61.0195 8.3125H61.6758L61.6055 9.07031ZM63.0273 14L61.3242 9.07031L61.25 8.3125H61.9102L64.0586 14H63.0273ZM62.9453 11.8906V12.668H59.8516V11.8906H62.9453ZM62.0469 6.88281H62.7461C62.7461 7.09896 62.694 7.29036 62.5898 7.45703C62.4883 7.62109 62.3424 7.75 62.1523 7.84375C61.9648 7.9375 61.7409 7.98438 61.4805 7.98438C61.0872 7.98438 60.776 7.88281 60.5469 7.67969C60.3203 7.47396 60.207 7.20833 60.207 6.88281H60.9062C60.9062 7.02865 60.9492 7.15755 61.0352 7.26953C61.1237 7.37891 61.2721 7.43359 61.4805 7.43359C61.6862 7.43359 61.832 7.37891 61.918 7.26953C62.0039 7.15755 62.0469 7.02865 62.0469 6.88281ZM69.207 8.3125V14H68.2266L65.6758 9.92578V14H64.6953V8.3125H65.6758L68.2344 12.3945V8.3125H69.207ZM74.7422 11.0938V13.2656C74.6615 13.3724 74.5352 13.4896 74.3633 13.6172C74.194 13.7422 73.9688 13.8503 73.6875 13.9414C73.4062 14.0326 73.056 14.0781 72.6367 14.0781C72.2799 14.0781 71.9531 14.0182 71.6562 13.8984C71.3594 13.776 71.1029 13.5977 70.8867 13.3633C70.6732 13.1289 70.5078 12.8438 70.3906 12.5078C70.2734 12.1693 70.2148 11.7839 70.2148 11.3516V10.957C70.2148 10.5273 70.2682 10.1445 70.375 9.80859C70.4844 9.47005 70.6406 9.18359 70.8438 8.94922C71.0469 8.71484 71.2917 8.53776 71.5781 8.41797C71.8672 8.29557 72.194 8.23438 72.5586 8.23438C73.0247 8.23438 73.4102 8.3125 73.7148 8.46875C74.0221 8.6224 74.2591 8.83594 74.4258 9.10938C74.5924 9.38281 74.6979 9.69531 74.7422 10.0469H73.7812C73.75 9.84896 73.6888 9.67188 73.5977 9.51562C73.5091 9.35938 73.3815 9.23698 73.2148 9.14844C73.0508 9.05729 72.8372 9.01172 72.5742 9.01172C72.3477 9.01172 72.1484 9.05469 71.9766 9.14062C71.8047 9.22656 71.6615 9.35286 71.5469 9.51953C71.4349 9.6862 71.3503 9.88932 71.293 10.1289C71.2357 10.3685 71.207 10.6419 71.207 10.9492V11.3516C71.207 11.6641 71.2396 11.9414 71.3047 12.1836C71.3724 12.4258 71.4688 12.6302 71.5938 12.7969C71.7214 12.9635 71.8763 13.0898 72.0586 13.1758C72.2409 13.2591 72.4466 13.3008 72.6758 13.3008C72.8997 13.3008 73.0833 13.2826 73.2266 13.2461C73.3698 13.207 73.4831 13.1615 73.5664 13.1094C73.6523 13.0547 73.7188 13.0026 73.7656 12.9531V11.8242H72.582V11.0938H74.7422ZM78.8008 8.3125V14H77.8203V8.3125H78.8008ZM82.2188 8.3125L79.9141 11.0508L78.6016 12.4414L78.4297 11.4688L79.3672 10.3125L81.0234 8.3125H82.2188ZM81.1641 14L79.293 11.3047L79.9688 10.6367L82.3281 14H81.1641ZM83.418 8.3125L84.7383 11.0273L86.0586 8.3125H87.1445L85.2305 11.9062V14H84.2422V11.9062L82.3281 8.3125H83.418ZM84.2773 7.96484L85.0391 6.78906H86.1016L85.0391 7.96484H84.2773ZM43.7109 21.4297H42.2617L42.2539 20.7148H43.5195C43.7331 20.7148 43.9141 20.6836 44.0625 20.6211C44.2135 20.556 44.3281 20.4635 44.4062 20.3438C44.4844 20.2214 44.5234 20.0742 44.5234 19.9023C44.5234 19.7122 44.487 19.5573 44.4141 19.4375C44.3411 19.3177 44.2292 19.2305 44.0781 19.1758C43.9297 19.1211 43.7396 19.0938 43.5078 19.0938H42.5586V24H41.5781V18.3125H43.5078C43.8203 18.3125 44.099 18.3424 44.3438 18.4023C44.5911 18.4622 44.8008 18.556 44.9727 18.6836C45.1471 18.8086 45.2786 18.9674 45.3672 19.1602C45.4583 19.3529 45.5039 19.582 45.5039 19.8477C45.5039 20.082 45.4479 20.2969 45.3359 20.4922C45.224 20.6849 45.0586 20.8424 44.8398 20.9648C44.6211 21.0872 44.349 21.1602 44.0234 21.1836L43.7109 21.4297ZM43.668 24H41.9531L42.3945 23.2227H43.668C43.8893 23.2227 44.0742 23.1862 44.2227 23.1133C44.3711 23.0378 44.4818 22.9349 44.5547 22.8047C44.6302 22.6719 44.668 22.5169 44.668 22.3398C44.668 22.1549 44.6354 21.9948 44.5703 21.8594C44.5052 21.7214 44.4023 21.6159 44.2617 21.543C44.1211 21.4674 43.9375 21.4297 43.7109 21.4297H42.6094L42.6172 20.7148H44.0508L44.2734 20.9844C44.5859 20.9948 44.8424 21.0638 45.043 21.1914C45.2461 21.319 45.3971 21.4844 45.4961 21.6875C45.5951 21.8906 45.6445 22.1094 45.6445 22.3438C45.6445 22.7057 45.5651 23.0091 45.4062 23.2539C45.25 23.4987 45.0247 23.6849 44.7305 23.8125C44.4362 23.9375 44.082 24 43.668 24ZM51.168 21V21.3125C51.168 21.7422 51.112 22.1276 51 22.4688C50.888 22.8099 50.7279 23.1003 50.5195 23.3398C50.3138 23.5794 50.0664 23.763 49.7773 23.8906C49.4883 24.0156 49.168 24.0781 48.8164 24.0781C48.4674 24.0781 48.1484 24.0156 47.8594 23.8906C47.5729 23.763 47.3242 23.5794 47.1133 23.3398C46.9023 23.1003 46.7383 22.8099 46.6211 22.4688C46.5065 22.1276 46.4492 21.7422 46.4492 21.3125V21C46.4492 20.5703 46.5065 20.1862 46.6211 19.8477C46.7357 19.5065 46.8971 19.2161 47.1055 18.9766C47.3164 18.7344 47.5651 18.5508 47.8516 18.4258C48.1406 18.2982 48.4596 18.2344 48.8086 18.2344C49.1602 18.2344 49.4805 18.2982 49.7695 18.4258C50.0586 18.5508 50.3073 18.7344 50.5156 18.9766C50.724 19.2161 50.8841 19.5065 50.9961 19.8477C51.1107 20.1862 51.168 20.5703 51.168 21ZM50.1875 21.3125V20.9922C50.1875 20.6745 50.1562 20.3945 50.0938 20.1523C50.0339 19.9076 49.944 19.7031 49.8242 19.5391C49.707 19.3724 49.5625 19.2474 49.3906 19.1641C49.2188 19.0781 49.0247 19.0352 48.8086 19.0352C48.5924 19.0352 48.3997 19.0781 48.2305 19.1641C48.0612 19.2474 47.9167 19.3724 47.7969 19.5391C47.6797 19.7031 47.5898 19.9076 47.5273 20.1523C47.4648 20.3945 47.4336 20.6745 47.4336 20.9922V21.3125C47.4336 21.6302 47.4648 21.9115 47.5273 22.1562C47.5898 22.401 47.681 22.6081 47.8008 22.7773C47.9232 22.944 48.069 23.0703 48.2383 23.1562C48.4076 23.2396 48.6003 23.2812 48.8164 23.2812C49.0352 23.2812 49.2292 23.2396 49.3984 23.1562C49.5677 23.0703 49.7109 22.944 49.8281 22.7773C49.9453 22.6081 50.0339 22.401 50.0938 22.1562C50.1562 21.9115 50.1875 21.6302 50.1875 21.3125ZM49.0898 16.7812L50.1719 17.8594V17.9023H49.4102L48.8125 17.2891L48.2148 17.9023H47.4688V17.8516L48.5352 16.7812H49.0898ZM48.2773 24.9375C48.2773 24.8021 48.3242 24.6888 48.418 24.5977C48.5143 24.5065 48.6458 24.4609 48.8125 24.4609C48.9792 24.4609 49.1107 24.5065 49.207 24.5977C49.3034 24.6888 49.3516 24.8021 49.3516 24.9375C49.3516 25.0703 49.3034 25.1823 49.207 25.2734C49.1107 25.3646 48.9792 25.4102 48.8125 25.4102C48.6458 25.4102 48.5143 25.3646 48.418 25.2734C48.3242 25.1823 48.2773 25.0703 48.2773 24.9375ZM56.293 18.3125V24H55.3203V18.3125H56.293ZM58.0781 18.3125V19.0938H53.5508V18.3125H58.0781ZM62.5859 20.6875V21.4648H59.5664V20.6875H62.5859ZM59.8086 18.3125V24H58.8281V18.3125H59.8086ZM63.3398 18.3125V24H62.3633V18.3125H63.3398ZM69.043 21V21.3125C69.043 21.7422 68.987 22.1276 68.875 22.4688C68.763 22.8099 68.6029 23.1003 68.3945 23.3398C68.1888 23.5794 67.9414 23.763 67.6523 23.8906C67.3633 24.0156 67.043 24.0781 66.6914 24.0781C66.3424 24.0781 66.0234 24.0156 65.7344 23.8906C65.4479 23.763 65.1992 23.5794 64.9883 23.3398C64.7773 23.1003 64.6133 22.8099 64.4961 22.4688C64.3815 22.1276 64.3242 21.7422 64.3242 21.3125V21C64.3242 20.5703 64.3815 20.1862 64.4961 19.8477C64.6107 19.5065 64.7721 19.2161 64.9805 18.9766C65.1914 18.7344 65.4401 18.5508 65.7266 18.4258C66.0156 18.2982 66.3346 18.2344 66.6836 18.2344C67.0352 18.2344 67.3555 18.2982 67.6445 18.4258C67.9336 18.5508 68.1823 18.7344 68.3906 18.9766C68.599 19.2161 68.7591 19.5065 68.8711 19.8477C68.9857 20.1862 69.043 20.5703 69.043 21ZM68.0625 21.3125V20.9922C68.0625 20.6745 68.0312 20.3945 67.9688 20.1523C67.9089 19.9076 67.819 19.7031 67.6992 19.5391C67.582 19.3724 67.4375 19.2474 67.2656 19.1641C67.0938 19.0781 66.8997 19.0352 66.6836 19.0352C66.4674 19.0352 66.2747 19.0781 66.1055 19.1641C65.9362 19.2474 65.7917 19.3724 65.6719 19.5391C65.5547 19.7031 65.4648 19.9076 65.4023 20.1523C65.3398 20.3945 65.3086 20.6745 65.3086 20.9922V21.3125C65.3086 21.6302 65.3398 21.9115 65.4023 22.1562C65.4648 22.401 65.556 22.6081 65.6758 22.7773C65.7982 22.944 65.944 23.0703 66.1133 23.1562C66.2826 23.2396 66.4753 23.2812 66.6914 23.2812C66.9102 23.2812 67.1042 23.2396 67.2734 23.1562C67.4427 23.0703 67.5859 22.944 67.7031 22.7773C67.8203 22.6081 67.9089 22.401 67.9688 22.1562C68.0312 21.9115 68.0625 21.6302 68.0625 21.3125ZM66.9648 16.7812L68.0469 17.8594V17.9023H67.2852L66.6875 17.2891L66.0898 17.9023H65.3438V17.8516L66.4102 16.7812H66.9648ZM74.5352 18.3125V24H73.5547L71.0039 19.9258V24H70.0234V18.3125H71.0039L73.5625 22.3945V18.3125H74.5352ZM80.0703 21.0938V23.2656C79.9896 23.3724 79.8633 23.4896 79.6914 23.6172C79.5221 23.7422 79.2969 23.8503 79.0156 23.9414C78.7344 24.0326 78.3841 24.0781 77.9648 24.0781C77.6081 24.0781 77.2812 24.0182 76.9844 23.8984C76.6875 23.776 76.431 23.5977 76.2148 23.3633C76.0013 23.1289 75.8359 22.8438 75.7188 22.5078C75.6016 22.1693 75.543 21.7839 75.543 21.3516V20.957C75.543 20.5273 75.5964 20.1445 75.7031 19.8086C75.8125 19.4701 75.9688 19.1836 76.1719 18.9492C76.375 18.7148 76.6198 18.5378 76.9062 18.418C77.1953 18.2956 77.5221 18.2344 77.8867 18.2344C78.3529 18.2344 78.7383 18.3125 79.043 18.4688C79.3503 18.6224 79.5872 18.8359 79.7539 19.1094C79.9206 19.3828 80.026 19.6953 80.0703 20.0469H79.1094C79.0781 19.849 79.0169 19.6719 78.9258 19.5156C78.8372 19.3594 78.7096 19.237 78.543 19.1484C78.3789 19.0573 78.1654 19.0117 77.9023 19.0117C77.6758 19.0117 77.4766 19.0547 77.3047 19.1406C77.1328 19.2266 76.9896 19.3529 76.875 19.5195C76.763 19.6862 76.6784 19.8893 76.6211 20.1289C76.5638 20.3685 76.5352 20.6419 76.5352 20.9492V21.3516C76.5352 21.6641 76.5677 21.9414 76.6328 22.1836C76.7005 22.4258 76.7969 22.6302 76.9219 22.7969C77.0495 22.9635 77.2044 23.0898 77.3867 23.1758C77.569 23.2591 77.7747 23.3008 78.0039 23.3008C78.2279 23.3008 78.4115 23.2826 78.5547 23.2461C78.6979 23.207 78.8112 23.1615 78.8945 23.1094C78.9805 23.0547 79.0469 23.0026 79.0938 22.9531V21.8242H77.9102V21.0938H80.0703ZM85.3008 18.3125V24H84.3281V18.3125H85.3008ZM87.0859 18.3125V19.0938H82.5586V18.3125H87.0859ZM88.8828 18.3125V24H87.9023V18.3125H88.8828ZM94.6133 18.3125V24H93.6328L91.082 19.9258V24H90.1016V18.3125H91.082L93.6406 22.3945V18.3125H94.6133ZM99.7227 22.9609L101.219 18.3125H102.301L100.262 24H99.5312L99.7227 22.9609ZM98.3398 18.3125L99.8242 22.9609L100.027 24H99.293L97.2617 18.3125H98.3398ZM104.855 19.0703L103.156 24H102.129L104.27 18.3125H104.926L104.855 19.0703ZM106.277 24L104.574 19.0703L104.5 18.3125H105.16L107.309 24H106.277ZM106.195 21.8906V22.668H103.102V21.8906H106.195ZM104.453 16.7852L105.215 17.9609H104.43L103.387 16.7852H104.453ZM43.918 28.3125V34H42.9453V28.3125H43.918ZM45.7031 28.3125V29.0938H41.1758V28.3125H45.7031ZM46.4531 28.3125H48.4648C48.8971 28.3125 49.2656 28.3776 49.5703 28.5078C49.875 28.638 50.1081 28.8307 50.2695 29.0859C50.4336 29.3385 50.5156 29.651 50.5156 30.0234C50.5156 30.3073 50.4635 30.5573 50.3594 30.7734C50.2552 30.9896 50.1081 31.1719 49.918 31.3203C49.7279 31.4661 49.5013 31.5794 49.2383 31.6602L48.9414 31.8047H47.1328L47.125 31.0273H48.4805C48.7148 31.0273 48.9102 30.9857 49.0664 30.9023C49.2227 30.819 49.3398 30.7057 49.418 30.5625C49.4987 30.4167 49.5391 30.2526 49.5391 30.0703C49.5391 29.8724 49.5 29.7005 49.4219 29.5547C49.3464 29.4062 49.2292 29.293 49.0703 29.2148C48.9115 29.1341 48.7096 29.0938 48.4648 29.0938H47.4336V34H46.4531V28.3125ZM49.6992 34L48.3633 31.4453L49.3906 31.4414L50.7461 33.9492V34H49.6992ZM54.6836 28.3125H55.6602V32.1133C55.6602 32.5456 55.5664 32.9076 55.3789 33.1992C55.1914 33.4909 54.9362 33.7109 54.6133 33.8594C54.293 34.0052 53.9349 34.0781 53.5391 34.0781C53.1302 34.0781 52.7656 34.0052 52.4453 33.8594C52.125 33.7109 51.8724 33.4909 51.6875 33.1992C51.5052 32.9076 51.4141 32.5456 51.4141 32.1133V28.3125H52.3906V32.1133C52.3906 32.3867 52.4375 32.612 52.5312 32.7891C52.625 32.9635 52.7578 33.0924 52.9297 33.1758C53.1016 33.2591 53.3047 33.3008 53.5391 33.3008C53.7734 33.3008 53.9753 33.2591 54.1445 33.1758C54.3164 33.0924 54.4492 32.9635 54.543 32.7891C54.6367 32.612 54.6836 32.3867 54.6836 32.1133V28.3125ZM57.2695 28.3125L58.5898 31.0273L59.9102 28.3125H60.9961L59.082 31.9062V34H58.0938V31.9062L56.1797 28.3125H57.2695ZM65.3398 33.2227V34H62.3203V33.2227H65.3398ZM62.5977 28.3125V34H61.6172V28.3125H62.5977ZM64.9453 30.6875V31.4531H62.3203V30.6875H64.9453ZM65.3203 28.3125V29.0938H62.3203V28.3125H65.3203ZM63.793 26.9922L64.9141 27.9531H64.1133L63.4883 27.3945L62.8633 27.9531H62.0625L63.1797 26.9922H63.793ZM61.7461 26.3125L62.3477 27.3438H61.75L60.9062 26.3125H61.7461ZM70.6523 28.3125V34H69.6719L67.1211 29.9258V34H66.1406V28.3125H67.1211L69.6797 32.3945V28.3125H70.6523ZM75.9648 28.3125V34H74.9922V28.3125H75.9648ZM77.75 28.3125V29.0938H73.2227V28.3125H77.75ZM82.2578 30.6875V31.4648H79.2383V30.6875H82.2578ZM79.4805 28.3125V34H78.5V28.3125H79.4805ZM83.0117 28.3125V34H82.0352V28.3125H83.0117ZM88.7148 31V31.3125C88.7148 31.7422 88.6589 32.1276 88.5469 32.4688C88.4349 32.8099 88.2747 33.1003 88.0664 33.3398C87.8607 33.5794 87.6133 33.763 87.3242 33.8906C87.0352 34.0156 86.7148 34.0781 86.3633 34.0781C86.0143 34.0781 85.6953 34.0156 85.4062 33.8906C85.1198 33.763 84.8711 33.5794 84.6602 33.3398C84.4492 33.1003 84.2852 32.8099 84.168 32.4688C84.0534 32.1276 83.9961 31.7422 83.9961 31.3125V31C83.9961 30.5703 84.0534 30.1862 84.168 29.8477C84.2826 29.5065 84.444 29.2161 84.6523 28.9766C84.8633 28.7344 85.112 28.5508 85.3984 28.4258C85.6875 28.2982 86.0065 28.2344 86.3555 28.2344C86.707 28.2344 87.0273 28.2982 87.3164 28.4258C87.6055 28.5508 87.8542 28.7344 88.0625 28.9766C88.2708 29.2161 88.431 29.5065 88.543 29.8477C88.6576 30.1862 88.7148 30.5703 88.7148 31ZM87.7344 31.3125V30.9922C87.7344 30.6745 87.7031 30.3945 87.6406 30.1523C87.5807 29.9076 87.4909 29.7031 87.3711 29.5391C87.2539 29.3724 87.1094 29.2474 86.9375 29.1641C86.7656 29.0781 86.5716 29.0352 86.3555 29.0352C86.1393 29.0352 85.9466 29.0781 85.7773 29.1641C85.6081 29.2474 85.4635 29.3724 85.3438 29.5391C85.2266 29.7031 85.1367 29.9076 85.0742 30.1523C85.0117 30.3945 84.9805 30.6745 84.9805 30.9922V31.3125C84.9805 31.6302 85.0117 31.9115 85.0742 32.1562C85.1367 32.401 85.2279 32.6081 85.3477 32.7773C85.4701 32.944 85.6159 33.0703 85.7852 33.1562C85.9544 33.2396 86.1471 33.2812 86.3633 33.2812C86.582 33.2812 86.776 33.2396 86.9453 33.1562C87.1146 33.0703 87.2578 32.944 87.375 32.7773C87.4922 32.6081 87.5807 32.401 87.6406 32.1562C87.7031 31.9115 87.7344 31.6302 87.7344 31.3125ZM86.6367 26.7812L87.7188 27.8594V27.9023H86.957L86.3594 27.2891L85.7617 27.9023H85.0156V27.8516L86.082 26.7812H86.6367ZM94.207 28.3125V34H93.2266L90.6758 29.9258V34H89.6953V28.3125H90.6758L93.2344 32.3945V28.3125H94.207ZM99.7422 31.0938V33.2656C99.6615 33.3724 99.5352 33.4896 99.3633 33.6172C99.194 33.7422 98.9688 33.8503 98.6875 33.9414C98.4062 34.0326 98.056 34.0781 97.6367 34.0781C97.2799 34.0781 96.9531 34.0182 96.6562 33.8984C96.3594 33.776 96.1029 33.5977 95.8867 33.3633C95.6732 33.1289 95.5078 32.8438 95.3906 32.5078C95.2734 32.1693 95.2148 31.7839 95.2148 31.3516V30.957C95.2148 30.5273 95.2682 30.1445 95.375 29.8086C95.4844 29.4701 95.6406 29.1836 95.8438 28.9492C96.0469 28.7148 96.2917 28.5378 96.5781 28.418C96.8672 28.2956 97.194 28.2344 97.5586 28.2344C98.0247 28.2344 98.4102 28.3125 98.7148 28.4688C99.0221 28.6224 99.2591 28.8359 99.4258 29.1094C99.5924 29.3828 99.6979 29.6953 99.7422 30.0469H98.7812C98.75 29.849 98.6888 29.6719 98.5977 29.5156C98.5091 29.3594 98.3815 29.237 98.2148 29.1484C98.0508 29.0573 97.8372 29.0117 97.5742 29.0117C97.3477 29.0117 97.1484 29.0547 96.9766 29.1406C96.8047 29.2266 96.6615 29.3529 96.5469 29.5195C96.4349 29.6862 96.3503 29.8893 96.293 30.1289C96.2357 30.3685 96.207 30.6419 96.207 30.9492V31.3516C96.207 31.6641 96.2396 31.9414 96.3047 32.1836C96.3724 32.4258 96.4688 32.6302 96.5938 32.7969C96.7214 32.9635 96.8763 33.0898 97.0586 33.1758C97.2409 33.2591 97.4466 33.3008 97.6758 33.3008C97.8997 33.3008 98.0833 33.2826 98.2266 33.2461C98.3698 33.207 98.4831 33.1615 98.5664 33.1094C98.6523 33.0547 98.7188 33.0026 98.7656 32.9531V31.8242H97.582V31.0938H99.7422Z" fill="white"/>
<path d="M33.3283 16.1822C32.4374 15.2912 30.9876 15.2913 30.0963 16.1824C29.8222 16.4568 28.072 18.2084 27.8047 18.476V12.4396C27.8047 11.8292 27.567 11.2554 27.1353 10.8238L24.9809 8.6693C24.5494 8.23766 23.9755 8 23.3651 8H10.2852C9.02512 8 8 9.02512 8 10.2852V31.7148C8 32.9749 9.02512 34 10.2852 34H25.5195C26.7796 34 27.8047 32.9749 27.8047 31.7148V24.9422L33.3283 19.4139C34.2214 18.5209 34.2216 17.0754 33.3283 16.1822ZM23.2344 9.52344C23.3783 9.52344 23.6557 9.4985 23.9037 9.74652L26.0582 11.901C26.2999 12.1428 26.2813 12.4077 26.2813 12.5703H23.2344V9.52344ZM26.2812 31.7148C26.2812 32.1349 25.9396 32.4766 25.5195 32.4766H10.2852C9.86514 32.4766 9.52344 32.1349 9.52344 31.7148V10.2852C9.52344 9.86514 9.86514 9.52344 10.2852 9.52344H21.7109V13.332C21.7109 13.7527 22.052 14.0938 22.4727 14.0938H26.2812V20.0008C26.2812 20.0008 24.034 22.25 24.0339 22.25L22.9572 23.3268C22.8736 23.4104 22.8105 23.5124 22.7731 23.6245L21.6959 26.8562C21.6046 27.13 21.6758 27.4318 21.8799 27.6357C22.0842 27.84 22.3861 27.9109 22.6594 27.8198L25.8911 26.7425C26.0033 26.7052 26.1052 26.6422 26.1888 26.5585L26.2812 26.4661V31.7148ZM24.573 23.8654L25.6502 24.9427L25.2387 25.3541L23.6229 25.8927L24.1615 24.2769L24.573 23.8654ZM26.7272 23.8652L25.65 22.788C26.2236 22.2139 28.7713 19.664 29.3116 19.1233L30.3888 20.2005L26.7272 23.8652ZM32.2508 18.3369L31.4656 19.1228L30.3884 18.0456L31.1739 17.2595C31.471 16.9624 31.9542 16.9625 32.2511 17.2595C32.5481 17.5565 32.5496 18.0381 32.2508 18.3369Z" fill="white"/>
<path d="M22.4727 15.6172H11.8086C11.3879 15.6172 11.0469 15.9582 11.0469 16.3789C11.0469 16.7996 11.3879 17.1406 11.8086 17.1406H22.4727C22.8933 17.1406 23.2344 16.7996 23.2344 16.3789C23.2344 15.9582 22.8933 15.6172 22.4727 15.6172Z" fill="white"/>
<path d="M19.4258 18.6641H11.8086C11.3879 18.6641 11.0469 19.0051 11.0469 19.4258C11.0469 19.8465 11.3879 20.1875 11.8086 20.1875H19.4258C19.8465 20.1875 20.1875 19.8465 20.1875 19.4258C20.1875 19.0051 19.8465 18.6641 19.4258 18.6641Z" fill="white"/>
<path d="M19.4258 21.7109H11.8086C11.3879 21.7109 11.0469 22.052 11.0469 22.4727C11.0469 22.8933 11.3879 23.2344 11.8086 23.2344H19.4258C19.8465 23.2344 20.1875 22.8933 20.1875 22.4727C20.1875 22.052 19.8465 21.7109 19.4258 21.7109Z" fill="white"/>
<path d="M19.4258 24.7578H11.8086C11.3879 24.7578 11.0469 25.0989 11.0469 25.5195C11.0469 25.9402 11.3879 26.2812 11.8086 26.2812H19.4258C19.8465 26.2812 20.1875 25.9402 20.1875 25.5195C20.1875 25.0989 19.8465 24.7578 19.4258 24.7578Z" fill="white"/>
<path d="M22.4727 29.4297H17.9023C17.4817 29.4297 17.1406 29.7707 17.1406 30.1914C17.1406 30.6121 17.4817 30.9531 17.9023 30.9531H22.4727C22.8933 30.9531 23.2344 30.6121 23.2344 30.1914C23.2344 29.7707 22.8933 29.4297 22.4727 29.4297Z" fill="white"/>
</svg>
