<svg width="20" height="15" viewBox="0 0 20 15" fill="none" xmlns="http://www.w3.org/2000/svg">
<path d="M19.999 1.78066C19.25 2.0863 18.4556 2.28702 17.6423 2.37619C18.4996 1.90324 19.1412 1.1589 19.4476 0.281881C18.6431 0.723552 17.761 1.03308 16.8416 1.20052C16.2241 0.591031 15.4056 0.186817 14.5133 0.0507149C13.621 -0.0853868 12.705 0.0542504 11.9076 0.447918C11.1103 0.841585 10.4762 1.46723 10.1041 2.22758C9.73199 2.98793 9.64261 3.84039 9.84988 4.65243C8.21832 4.57699 6.62219 4.18589 5.16512 3.5045C3.70805 2.82312 2.42261 1.86669 1.39227 0.697305C1.02756 1.27514 0.835906 1.93201 0.836931 2.60065C0.836931 3.91299 1.56103 5.07237 2.66189 5.75117C2.01041 5.73225 1.37327 5.56996 0.803571 5.27782V5.32489C0.803768 6.1989 1.13164 7.04597 1.7316 7.72245C2.33156 8.39893 3.16668 8.8632 4.09537 9.03654C3.4906 9.18772 2.85646 9.21001 2.24097 9.10171C2.50281 9.85403 3.01315 10.512 3.70054 10.9834C4.38793 11.4549 5.21794 11.7162 6.07437 11.7309C5.2232 12.3476 4.2486 12.8034 3.20632 13.0724C2.16403 13.3413 1.0745 13.4182 0 13.2985C1.87568 14.4112 4.05916 15.0019 6.28925 15C13.8373 15 17.9651 9.23204 17.9651 4.22976C17.9651 4.06685 17.9602 3.90213 17.9523 3.74103C18.7558 3.20538 19.4492 2.54184 20 1.78157L19.999 1.78066Z" fill="white"/>
</svg>
