<svg width="22" height="16" viewBox="0 0 22 16" fill="none" xmlns="http://www.w3.org/2000/svg">
<path d="M21.065 13.6782C20.4683 14.7397 19.8206 14.935 18.502 15.0092C17.1847 15.0986 13.8724 15.1357 11.0027 15.1357C8.12762 15.1357 4.81387 15.0986 3.498 15.0106C2.18212 14.935 1.53312 14.7411 0.930875 13.6782C0.31625 12.6181 0 10.7921 0 7.57737C0 7.57462 0 7.57324 0 7.57324C0 7.57049 0 7.56912 0 7.56912V7.56637C0 4.36537 0.31625 2.52562 0.930875 1.47649C1.53312 0.414992 2.18075 0.222492 3.49662 0.133117C4.81388 0.0561171 8.12762 0.0107422 11.0027 0.0107422C13.8724 0.0107422 17.1847 0.056118 18.5034 0.131742C19.822 0.221118 20.4696 0.413616 21.0664 1.47512C21.6865 2.52424 22 4.36399 22 7.56499C22 7.56499 22 7.56912 22 7.57187C22 7.57187 22 7.57462 22 7.57599C22 10.7921 21.6865 12.6181 21.065 13.6782ZM8.25 3.44824V11.6982L15.125 7.57324L8.25 3.44824Z" fill="white"/>
</svg>
