<svg width="112" height="112" viewBox="0 0 112 112" fill="none" xmlns="http://www.w3.org/2000/svg">
<path d="M56 0C86.912 0 112 25.088 112 56C112 86.912 86.912 112 56 112C25.088 112 0 86.912 0 56C0 25.088 25.088 0 56 0ZM22.5288 75.1296C30.7496 87.3936 43.092 95.2 56.896 95.2C70.6944 95.2 83.0424 87.3992 91.2576 75.1296C81.9377 66.4193 69.6525 61.5821 56.896 61.6C44.1376 61.5807 31.8501 66.418 22.5288 75.1296ZM56 50.4C60.4556 50.4 64.7288 48.63 67.8794 45.4794C71.03 42.3288 72.8 38.0556 72.8 33.6C72.8 29.1444 71.03 24.8712 67.8794 21.7206C64.7288 18.57 60.4556 16.8 56 16.8C51.5444 16.8 47.2712 18.57 44.1206 21.7206C40.97 24.8712 39.2 29.1444 39.2 33.6C39.2 38.0556 40.97 42.3288 44.1206 45.4794C47.2712 48.63 51.5444 50.4 56 50.4Z" fill="white"/>
</svg>
