<svg width="18" height="18" viewBox="0 0 18 18" fill="none" xmlns="http://www.w3.org/2000/svg">
<path d="M15.3 18H2.7C1.98392 18 1.29716 17.7155 0.790812 17.2092C0.284464 16.7028 0 16.0161 0 15.3V0.9C0 0.661305 0.0948211 0.432387 0.263604 0.263604C0.432387 0.0948211 0.661305 0 0.9 0H13.5C13.7387 0 13.9676 0.0948211 14.1364 0.263604C14.3052 0.432387 14.4 0.661305 14.4 0.9V11.7H18V15.3C18 16.0161 17.7155 16.7028 17.2092 17.2092C16.7028 17.7155 16.0161 18 15.3 18ZM14.4 13.5V15.3C14.4 15.5387 14.4948 15.7676 14.6636 15.9364C14.8324 16.1052 15.0613 16.2 15.3 16.2C15.5387 16.2 15.7676 16.1052 15.9364 15.9364C16.1052 15.7676 16.2 15.5387 16.2 15.3V13.5H14.4ZM12.6 16.2V1.8H1.8V15.3C1.8 15.5387 1.89482 15.7676 2.0636 15.9364C2.23239 16.1052 2.46131 16.2 2.7 16.2H12.6ZM3.6 4.5H10.8V6.3H3.6V4.5ZM3.6 8.1H10.8V9.9H3.6V8.1ZM3.6 11.7H8.1V13.5H3.6V11.7Z" fill="#555555"/>
</svg>
