<svg width="120" height="42" viewBox="0 0 120 42" fill="none" xmlns="http://www.w3.org/2000/svg">
<rect width="120" height="42" fill="#00ADEF"/>
<path d="M21 34C13.8201 34 8 28.1799 8 21C8 13.8201 13.8201 8 21 8C28.1799 8 34 13.8201 34 21C34 28.1799 28.1799 34 21 34ZM21 31.4C23.7583 31.4 26.4035 30.3043 28.3539 28.3539C30.3043 26.4035 31.4 23.7583 31.4 21C31.4 18.2417 30.3043 15.5965 28.3539 13.6461C26.4035 11.6957 23.7583 10.6 21 10.6C18.2417 10.6 15.5965 11.6957 13.6461 13.6461C11.6957 15.5965 10.6 18.2417 10.6 21C10.6 23.7583 11.6957 26.4035 13.6461 28.3539C15.5965 30.3043 18.2417 31.4 21 31.4V31.4ZM19.7039 26.2L14.188 20.6841L16.0262 18.8459L19.7039 22.5236L27.0567 15.1695L28.8962 17.0077L19.7039 26.2Z" fill="white"/>
<path d="M40.3477 18H39.1328L39.1406 17.2227H40.3477C40.6992 17.2227 40.9935 17.1458 41.2305 16.9922C41.4701 16.8385 41.6497 16.6185 41.7695 16.332C41.8919 16.0456 41.9531 15.7044 41.9531 15.3086V15C41.9531 14.6927 41.918 14.4206 41.8477 14.1836C41.7799 13.9466 41.6784 13.7474 41.543 13.5859C41.4102 13.4245 41.2461 13.3021 41.0508 13.2188C40.8581 13.1354 40.6354 13.0938 40.3828 13.0938H39.1094V12.3125H40.3828C40.7604 12.3125 41.1055 12.3763 41.418 12.5039C41.7305 12.6289 42 12.8099 42.2266 13.0469C42.4557 13.2839 42.6315 13.5677 42.7539 13.8984C42.8763 14.2292 42.9375 14.599 42.9375 15.0078V15.3086C42.9375 15.7174 42.8763 16.0872 42.7539 16.418C42.6315 16.7487 42.4557 17.0326 42.2266 17.2695C41.9974 17.5039 41.724 17.6849 41.4062 17.8125C41.0911 17.9375 40.7383 18 40.3477 18ZM39.6758 12.3125V18H38.6953V12.3125H39.6758ZM40.7148 14.7969V15.4453H38.0898V14.7969H40.7148ZM46.0508 13.0703L44.3516 18H43.3242L45.4648 12.3125H46.1211L46.0508 13.0703ZM47.4727 18L45.7695 13.0703L45.6953 12.3125H46.3555L48.5039 18H47.4727ZM47.3906 15.8906V16.668H44.2969V15.8906H47.3906ZM46.7773 10.8359L47.3516 10.8789C47.3516 11.069 47.3138 11.2396 47.2383 11.3906C47.1628 11.5391 47.0599 11.6562 46.9297 11.7422C46.7995 11.8281 46.6523 11.8711 46.4883 11.8711C46.3607 11.8711 46.2526 11.8529 46.1641 11.8164C46.0755 11.7799 45.9948 11.7383 45.9219 11.6914C45.849 11.6445 45.7734 11.6042 45.6953 11.5703C45.6198 11.5339 45.5299 11.5156 45.4258 11.5156C45.3268 11.5156 45.2422 11.5521 45.1719 11.625C45.1042 11.6979 45.0703 11.7956 45.0703 11.918L44.4922 11.8867C44.4922 11.6992 44.5299 11.5299 44.6055 11.3789C44.681 11.2279 44.7839 11.1081 44.9141 11.0195C45.0443 10.931 45.1914 10.8867 45.3555 10.8867C45.4622 10.8867 45.5586 10.9049 45.6445 10.9414C45.7331 10.9753 45.8164 11.0156 45.8945 11.0625C45.9753 11.1094 46.0573 11.151 46.1406 11.1875C46.224 11.224 46.3164 11.2422 46.418 11.2422C46.5169 11.2422 46.6016 11.2044 46.6719 11.1289C46.7422 11.0534 46.7773 10.9557 46.7773 10.8359ZM52.9023 18H51.6875L51.6953 17.2227H52.9023C53.2539 17.2227 53.5482 17.1458 53.7852 16.9922C54.0247 16.8385 54.2044 16.6185 54.3242 16.332C54.4466 16.0456 54.5078 15.7044 54.5078 15.3086V15C54.5078 14.6927 54.4727 14.4206 54.4023 14.1836C54.3346 13.9466 54.2331 13.7474 54.0977 13.5859C53.9648 13.4245 53.8008 13.3021 53.6055 13.2188C53.4128 13.1354 53.1901 13.0938 52.9375 13.0938H51.6641V12.3125H52.9375C53.3151 12.3125 53.6602 12.3763 53.9727 12.5039C54.2852 12.6289 54.5547 12.8099 54.7812 13.0469C55.0104 13.2839 55.1862 13.5677 55.3086 13.8984C55.431 14.2292 55.4922 14.599 55.4922 15.0078V15.3086C55.4922 15.7174 55.431 16.0872 55.3086 16.418C55.1862 16.7487 55.0104 17.0326 54.7812 17.2695C54.5521 17.5039 54.2786 17.6849 53.9609 17.8125C53.6458 17.9375 53.293 18 52.9023 18ZM52.2305 12.3125V18H51.25V12.3125H52.2305ZM53.2695 14.7969V15.4453H50.6445V14.7969H53.2695ZM58.6055 13.0703L56.9062 18H55.8789L58.0195 12.3125H58.6758L58.6055 13.0703ZM60.0273 18L58.3242 13.0703L58.25 12.3125H58.9102L61.0586 18H60.0273ZM59.9453 15.8906V16.668H56.8516V15.8906H59.9453ZM59.0469 10.8828H59.7461C59.7461 11.099 59.694 11.2904 59.5898 11.457C59.4883 11.6211 59.3424 11.75 59.1523 11.8438C58.9648 11.9375 58.7409 11.9844 58.4805 11.9844C58.0872 11.9844 57.776 11.8828 57.5469 11.6797C57.3203 11.474 57.207 11.2083 57.207 10.8828H57.9062C57.9062 11.0286 57.9492 11.1576 58.0352 11.2695C58.1237 11.3789 58.2721 11.4336 58.4805 11.4336C58.6862 11.4336 58.832 11.3789 58.918 11.2695C59.0039 11.1576 59.0469 11.0286 59.0469 10.8828ZM66.207 12.3125V18H65.2266L62.6758 13.9258V18H61.6953V12.3125H62.6758L65.2344 16.3945V12.3125H66.207ZM71.7422 15.0938V17.2656C71.6615 17.3724 71.5352 17.4896 71.3633 17.6172C71.194 17.7422 70.9688 17.8503 70.6875 17.9414C70.4062 18.0326 70.056 18.0781 69.6367 18.0781C69.2799 18.0781 68.9531 18.0182 68.6562 17.8984C68.3594 17.776 68.1029 17.5977 67.8867 17.3633C67.6732 17.1289 67.5078 16.8438 67.3906 16.5078C67.2734 16.1693 67.2148 15.7839 67.2148 15.3516V14.957C67.2148 14.5273 67.2682 14.1445 67.375 13.8086C67.4844 13.4701 67.6406 13.1836 67.8438 12.9492C68.0469 12.7148 68.2917 12.5378 68.5781 12.418C68.8672 12.2956 69.194 12.2344 69.5586 12.2344C70.0247 12.2344 70.4102 12.3125 70.7148 12.4688C71.0221 12.6224 71.2591 12.8359 71.4258 13.1094C71.5924 13.3828 71.6979 13.6953 71.7422 14.0469H70.7812C70.75 13.849 70.6888 13.6719 70.5977 13.5156C70.5091 13.3594 70.3815 13.237 70.2148 13.1484C70.0508 13.0573 69.8372 13.0117 69.5742 13.0117C69.3477 13.0117 69.1484 13.0547 68.9766 13.1406C68.8047 13.2266 68.6615 13.3529 68.5469 13.5195C68.4349 13.6862 68.3503 13.8893 68.293 14.1289C68.2357 14.3685 68.207 14.6419 68.207 14.9492V15.3516C68.207 15.6641 68.2396 15.9414 68.3047 16.1836C68.3724 16.4258 68.4688 16.6302 68.5938 16.7969C68.7214 16.9635 68.8763 17.0898 69.0586 17.1758C69.2409 17.2591 69.4466 17.3008 69.6758 17.3008C69.8997 17.3008 70.0833 17.2826 70.2266 17.2461C70.3698 17.207 70.4831 17.1615 70.5664 17.1094C70.6523 17.0547 70.7188 17.0026 70.7656 16.9531V15.8242H69.582V15.0938H71.7422ZM75.8008 12.3125V18H74.8203V12.3125H75.8008ZM79.2188 12.3125L76.9141 15.0508L75.6016 16.4414L75.4297 15.4688L76.3672 14.3125L78.0234 12.3125H79.2188ZM78.1641 18L76.293 15.3047L76.9688 14.6367L79.3281 18H78.1641ZM80.418 12.3125L81.7383 15.0273L83.0586 12.3125H84.1445L82.2305 15.9062V18H81.2422V15.9062L79.3281 12.3125H80.418ZM81.2773 11.9648L82.0391 10.7891H83.1016L82.0391 11.9648H81.2773ZM41.5703 28.5352C41.5703 28.418 41.5521 28.3138 41.5156 28.2227C41.4818 28.1315 41.4206 28.0482 41.332 27.9727C41.2435 27.8971 41.1185 27.8242 40.957 27.7539C40.7982 27.681 40.5951 27.6068 40.3477 27.5312C40.0768 27.4479 39.8268 27.3555 39.5977 27.2539C39.3711 27.1497 39.1732 27.0299 39.0039 26.8945C38.8346 26.7565 38.7031 26.599 38.6094 26.4219C38.5156 26.2422 38.4688 26.0352 38.4688 25.8008C38.4688 25.569 38.5169 25.3581 38.6133 25.168C38.7122 24.9779 38.8516 24.8138 39.0312 24.6758C39.2135 24.5352 39.4284 24.4271 39.6758 24.3516C39.9232 24.2734 40.1966 24.2344 40.4961 24.2344C40.918 24.2344 41.2812 24.3125 41.5859 24.4688C41.8932 24.625 42.1289 24.8346 42.293 25.0977C42.4596 25.3607 42.543 25.651 42.543 25.9688H41.5703C41.5703 25.7812 41.5299 25.6159 41.4492 25.4727C41.3711 25.3268 41.2513 25.2122 41.0898 25.1289C40.931 25.0456 40.7292 25.0039 40.4844 25.0039C40.2526 25.0039 40.0599 25.0391 39.9062 25.1094C39.7526 25.1797 39.638 25.2747 39.5625 25.3945C39.487 25.5143 39.4492 25.6497 39.4492 25.8008C39.4492 25.9076 39.474 26.0052 39.5234 26.0938C39.5729 26.1797 39.6484 26.2604 39.75 26.3359C39.8516 26.4089 39.9792 26.4779 40.1328 26.543C40.2865 26.6081 40.4674 26.6706 40.6758 26.7305C40.9909 26.8242 41.2656 26.9284 41.5 27.043C41.7344 27.1549 41.9297 27.2826 42.0859 27.4258C42.2422 27.569 42.3594 27.7318 42.4375 27.9141C42.5156 28.0938 42.5547 28.2982 42.5547 28.5273C42.5547 28.7669 42.5065 28.9831 42.4102 29.1758C42.3138 29.3659 42.1758 29.5286 41.9961 29.6641C41.819 29.7969 41.6055 29.8997 41.3555 29.9727C41.1081 30.043 40.832 30.0781 40.5273 30.0781C40.2539 30.0781 39.9844 30.0417 39.7188 29.9688C39.4557 29.8958 39.2161 29.7852 39 29.6367C38.7839 29.4857 38.612 29.2982 38.4844 29.0742C38.3568 28.8477 38.293 28.5833 38.293 28.2812H39.2734C39.2734 28.4661 39.3047 28.6237 39.3672 28.7539C39.4323 28.8841 39.5221 28.9909 39.6367 29.0742C39.7513 29.1549 39.8841 29.2148 40.0352 29.2539C40.1888 29.293 40.3529 29.3125 40.5273 29.3125C40.7565 29.3125 40.9479 29.2799 41.1016 29.2148C41.2578 29.1497 41.375 29.0586 41.4531 28.9414C41.5312 28.8242 41.5703 28.6888 41.5703 28.5352ZM47.8203 23.832H48.5273C48.5273 24.1836 48.474 24.4831 48.3672 24.7305C48.263 24.9779 48.1016 25.1667 47.8828 25.2969C47.6667 25.4245 47.3919 25.4883 47.0586 25.4883V24.9219C47.2539 24.9219 47.4062 24.8789 47.5156 24.793C47.6276 24.7044 47.7057 24.5794 47.75 24.418C47.7969 24.2539 47.8203 24.0586 47.8203 23.832ZM47.9219 27V27.3125C47.9219 27.7422 47.8659 28.1276 47.7539 28.4688C47.6419 28.8099 47.4818 29.1003 47.2734 29.3398C47.0651 29.5794 46.8164 29.763 46.5273 29.8906C46.2383 30.0156 45.918 30.0781 45.5664 30.0781C45.2904 30.0781 45.0312 30.0378 44.7891 29.957C44.5469 29.8737 44.3281 29.7552 44.1328 29.6016C43.9375 29.4453 43.7695 29.2552 43.6289 29.0312C43.4909 28.8047 43.3841 28.5482 43.3086 28.2617C43.2357 27.9727 43.1992 27.6562 43.1992 27.3125V27C43.1992 26.5703 43.2565 26.1862 43.3711 25.8477C43.4857 25.5065 43.6471 25.2161 43.8555 24.9766C44.0664 24.7344 44.3164 24.5508 44.6055 24.4258C44.8945 24.2982 45.2122 24.2344 45.5586 24.2344C45.8398 24.2344 46.1016 24.276 46.3438 24.3594C46.5885 24.4401 46.8073 24.5586 47 24.7148C47.1927 24.8711 47.3581 25.0612 47.4961 25.2852C47.6341 25.5091 47.7396 25.7656 47.8125 26.0547C47.8854 26.3411 47.9219 26.6562 47.9219 27ZM46.9375 27.3125V26.9922C46.9375 26.7396 46.918 26.5104 46.8789 26.3047C46.8398 26.0964 46.7812 25.9141 46.7031 25.7578C46.6276 25.599 46.5339 25.4661 46.4219 25.3594C46.3099 25.2526 46.181 25.1719 46.0352 25.1172C45.8919 25.0625 45.7331 25.0352 45.5586 25.0352C45.3451 25.0352 45.1536 25.0781 44.9844 25.1641C44.8151 25.2474 44.6706 25.3724 44.5508 25.5391C44.431 25.7031 44.3398 25.9076 44.2773 26.1523C44.2148 26.3945 44.1836 26.6745 44.1836 26.9922V27.3125C44.1836 27.5677 44.2031 27.7995 44.2422 28.0078C44.2839 28.2135 44.3438 28.3958 44.4219 28.5547C44.5 28.7135 44.5951 28.8477 44.707 28.957C44.8216 29.0638 44.9505 29.1445 45.0938 29.1992C45.2396 29.2539 45.3971 29.2812 45.5664 29.2812C45.7852 29.2812 45.9792 29.2396 46.1484 29.1562C46.3203 29.0703 46.4648 28.944 46.582 28.7773C46.6992 28.6081 46.7878 28.401 46.8477 28.1562C46.9076 27.9115 46.9375 27.6302 46.9375 27.3125ZM45.9531 23.8672H45.2539L45.2188 23.3086C45.3516 23.3008 45.4583 23.2878 45.5391 23.2695C45.6198 23.2487 45.6784 23.2201 45.7148 23.1836C45.7539 23.1445 45.7734 23.0938 45.7734 23.0312C45.7734 22.9792 45.7578 22.9349 45.7266 22.8984C45.6979 22.862 45.6562 22.8333 45.6016 22.8125C45.5469 22.7891 45.4831 22.7734 45.4102 22.7656C45.3372 22.7552 45.2578 22.75 45.1719 22.75L45.1992 22.2773C45.4206 22.2773 45.6146 22.2956 45.7812 22.332C45.9505 22.3659 46.0911 22.4154 46.2031 22.4805C46.3177 22.5456 46.4036 22.6237 46.4609 22.7148C46.5208 22.806 46.5508 22.9089 46.5508 23.0234C46.5508 23.2109 46.4883 23.349 46.3633 23.4375C46.2383 23.526 46.1016 23.5807 45.9531 23.6016V23.8672ZM51.9648 24.3125V30H50.9844V24.3125H51.9648ZM55.3828 24.3125L53.0781 27.0508L51.7656 28.4414L51.5938 27.4688L52.5312 26.3125L54.1875 24.3125H55.3828ZM54.3281 30L52.457 27.3047L53.1328 26.6367L55.4922 30H54.3281ZM59.7969 26.6875V27.4648H56.7773V26.6875H59.7969ZM57.0195 24.3125V30H56.0391V24.3125H57.0195ZM60.5508 24.3125V30H59.5742V24.3125H60.5508ZM63.4883 30H62.2734L62.2812 29.2227H63.4883C63.8398 29.2227 64.1341 29.1458 64.3711 28.9922C64.6107 28.8385 64.7904 28.6185 64.9102 28.332C65.0326 28.0456 65.0938 27.7044 65.0938 27.3086V27C65.0938 26.6927 65.0586 26.4206 64.9883 26.1836C64.9206 25.9466 64.819 25.7474 64.6836 25.5859C64.5508 25.4245 64.3867 25.3021 64.1914 25.2188C63.9987 25.1354 63.776 25.0938 63.5234 25.0938H62.25V24.3125H63.5234C63.901 24.3125 64.2461 24.3763 64.5586 24.5039C64.8711 24.6289 65.1406 24.8099 65.3672 25.0469C65.5964 25.2839 65.7721 25.5677 65.8945 25.8984C66.0169 26.2292 66.0781 26.599 66.0781 27.0078V27.3086C66.0781 27.7174 66.0169 28.0872 65.8945 28.418C65.7721 28.7487 65.5964 29.0326 65.3672 29.2695C65.138 29.5039 64.8646 29.6849 64.5469 29.8125C64.2318 29.9375 63.8789 30 63.4883 30ZM62.8164 24.3125V30H61.8359V24.3125H62.8164ZM63.8555 26.7969V27.4453H61.2305V26.7969H63.8555ZM69.207 24.3125V30H68.2344V24.3125H69.207ZM70.9922 24.3125V25.0938H66.4648V24.3125H70.9922ZM75.6992 24.3125V30H74.7266V24.3125H75.6992ZM77.4844 24.3125V25.0938H72.957V24.3125H77.4844ZM80.3945 27.8789H78.9141V27.1016H80.3945C80.6523 27.1016 80.8607 27.0599 81.0195 26.9766C81.1784 26.8932 81.2943 26.7786 81.3672 26.6328C81.4427 26.4844 81.4805 26.3151 81.4805 26.125C81.4805 25.9453 81.4427 25.7773 81.3672 25.6211C81.2943 25.4622 81.1784 25.3346 81.0195 25.2383C80.8607 25.1419 80.6523 25.0938 80.3945 25.0938H79.2148V30H78.2344V24.3125H80.3945C80.8346 24.3125 81.2083 24.3906 81.5156 24.5469C81.8255 24.7005 82.0612 24.9141 82.2227 25.1875C82.3841 25.4583 82.4648 25.7682 82.4648 26.1172C82.4648 26.4844 82.3841 26.7995 82.2227 27.0625C82.0612 27.3255 81.8255 27.5273 81.5156 27.668C81.2083 27.8086 80.8346 27.8789 80.3945 27.8789ZM89.0938 26.6875V27.4648H86.0742V26.6875H89.0938ZM86.3164 24.3125V30H85.3359V24.3125H86.3164ZM89.8477 24.3125V30H88.8711V24.3125H89.8477ZM93.3008 25.0703L91.6016 30H90.5742L92.7148 24.3125H93.3711L93.3008 25.0703ZM94.7227 30L93.0195 25.0703L92.9453 24.3125H93.6055L95.7539 30H94.7227ZM94.6406 27.8906V28.668H91.5469V27.8906H94.6406ZM92.8984 22.7852L93.6602 23.9609H92.875L91.832 22.7852H92.8984ZM102.895 24.3125V30H101.914L99.3633 25.9258V30H98.3828V24.3125H99.3633L101.922 28.3945V24.3125H102.895ZM108.598 27V27.3125C108.598 27.7422 108.542 28.1276 108.43 28.4688C108.318 28.8099 108.158 29.1003 107.949 29.3398C107.743 29.5794 107.496 29.763 107.207 29.8906C106.918 30.0156 106.598 30.0781 106.246 30.0781C105.897 30.0781 105.578 30.0156 105.289 29.8906C105.003 29.763 104.754 29.5794 104.543 29.3398C104.332 29.1003 104.168 28.8099 104.051 28.4688C103.936 28.1276 103.879 27.7422 103.879 27.3125V27C103.879 26.5703 103.936 26.1862 104.051 25.8477C104.165 25.5065 104.327 25.2161 104.535 24.9766C104.746 24.7344 104.995 24.5508 105.281 24.4258C105.57 24.2982 105.889 24.2344 106.238 24.2344C106.59 24.2344 106.91 24.2982 107.199 24.4258C107.488 24.5508 107.737 24.7344 107.945 24.9766C108.154 25.2161 108.314 25.5065 108.426 25.8477C108.54 26.1862 108.598 26.5703 108.598 27ZM107.617 27.3125V26.9922C107.617 26.6745 107.586 26.3945 107.523 26.1523C107.464 25.9076 107.374 25.7031 107.254 25.5391C107.137 25.3724 106.992 25.2474 106.82 25.1641C106.648 25.0781 106.454 25.0352 106.238 25.0352C106.022 25.0352 105.829 25.0781 105.66 25.1641C105.491 25.2474 105.346 25.3724 105.227 25.5391C105.109 25.7031 105.02 25.9076 104.957 26.1523C104.895 26.3945 104.863 26.6745 104.863 26.9922V27.3125C104.863 27.6302 104.895 27.9115 104.957 28.1562C105.02 28.401 105.111 28.6081 105.23 28.7773C105.353 28.944 105.499 29.0703 105.668 29.1562C105.837 29.2396 106.03 29.2812 106.246 29.2812C106.465 29.2812 106.659 29.2396 106.828 29.1562C106.997 29.0703 107.141 28.944 107.258 28.7773C107.375 28.6081 107.464 28.401 107.523 28.1562C107.586 27.9115 107.617 27.6302 107.617 27.3125ZM106.52 22.7812L107.602 23.8594V23.9023H106.84L106.242 23.2891L105.645 23.9023H104.898V23.8516L105.965 22.7812H106.52ZM105.707 30.9375C105.707 30.8021 105.754 30.6888 105.848 30.5977C105.944 30.5065 106.076 30.4609 106.242 30.4609C106.409 30.4609 106.54 30.5065 106.637 30.5977C106.733 30.6888 106.781 30.8021 106.781 30.9375C106.781 31.0703 106.733 31.1823 106.637 31.2734C106.54 31.3646 106.409 31.4102 106.242 31.4102C106.076 31.4102 105.944 31.3646 105.848 31.2734C105.754 31.1823 105.707 31.0703 105.707 30.9375ZM110.625 24.3125V30H109.645V24.3125H110.625Z" fill="white"/>
</svg>
