<svg width="26" height="23" viewBox="0 0 26 23" fill="none" xmlns="http://www.w3.org/2000/svg">
<path d="M1.3 0H24.7C25.0448 0 25.3754 0.134623 25.6192 0.374252C25.863 0.613882 26 0.93889 26 1.27778V21.7222C26 22.0611 25.863 22.3861 25.6192 22.6257C25.3754 22.8654 25.0448 23 24.7 23H1.3C0.955218 23 0.624558 22.8654 0.380761 22.6257C0.136964 22.3861 0 22.0611 0 21.7222V1.27778C0 0.93889 0.136964 0.613882 0.380761 0.374252C0.624558 0.134623 0.955218 0 1.3 0ZM13.078 11.0949L4.7424 4.13744L3.0589 6.08478L13.0949 14.4606L22.9502 6.07839L21.2498 4.14511L13.0793 11.0949H13.078Z" fill="#AAAAAA"/>
</svg>
